<?xml version="1.0" standalone="no"?>
<!DOCTYPE svg PUBLIC "-//W3C//DTD SVG 20010904//EN" "http://www.w3.org/TR/2001/REC-SVG-20010904/DTD/svg10.dtd">
<svg version="1.0" xmlns="http://www.w3.org/2000/svg" width="512.000000pt" height="512.000000pt" viewBox="0 0 512.000000 512.000000" preserveAspectRatio="xMidYMid meet">
  <metadata>
Created by potrace 1.14, written by Peter Selinger 2001-2017
</metadata>
  <g transform="translate(0.000000,512.000000) scale(0.100000,-0.100000)" fill="#000000" stroke="none">
    <path d="M495 5105 c-130 -35 -208 -78 -298 -163 -74 -71 -121 -143 -160 -245
l-32 -82 0 -2055 0 -2055 31 -80 c39 -101 72 -154 142 -228 71 -74 143 -121
245 -160 l82 -32 2055 0 2055 0 82 32 c102 39 174 86 245 160 70 74 103 127
142 228 l31 80 0 2055 0 2055 -31 80 c-39 101 -72 154 -142 228 -71 74 -143
121 -245 160 l-82 32 -2035 2 c-1686 1 -2044 -1 -2085 -12z m1405 -1977 l0
-593 593 593 592 592 235 0 235 0 -828 -828 -827 -827 0 -333 0 -332 -165 0
-165 0 0 1160 0 1160 165 0 165 0 0 -592z m1622 -1263 c21 -46 23 -67 26 -257
l3 -208 -165 0 -166 0 0 163 0 162 -295 295 c-162 162 -295 299 -295 305 0 5
51 60 112 122 l113 113 322 -322 c256 -256 327 -333 345 -373z" />
  </g>
</svg>