<svg xmlns="http://www.w3.org/2000/svg" viewBox="0 0 600 600"><title>Artboard 1</title><g id="Layer_4" data-name="Layer 4"><path d="M300,123.09l153.21,88.45V388.45L300,476.91,146.79,388.45V211.55L300,123.09M300,100,126.79,200V400L300,500,473.21,400V200L300,100Z"/></g><g id="Layer_3" data-name="Layer 3"><path d="M243.8,388.37V364.21a3.37,3.37,0,0,1,.42-1.26l40.46-32.74c-3-2.81-34-30.21-34-30.21H354.93a1.54,1.54,0,0,1,1.26,1.55v18.55a1.39,1.39,0,0,1-1.26,1.4H303.79l52,42.29a3.36,3.36,0,0,1,.42,1.26v22.9c0,1.55-1.12,2.25-2.11,1.26L299,344.54l-53.11,45.1C244.79,390.48,243.8,389.78,243.8,388.37Z"/><path d="M310.75,231.5v56.75a1.27,1.27,0,0,1-1.35,1H290.49a1.15,1.15,0,0,1-1.23-1V231.5Z"/><path d="M243.8,230.49V211a1.23,1.23,0,0,1,1.23-1H355a1.15,1.15,0,0,1,1.23,1v19.48c0,.56-.45,1-1.23,1H245A1.14,1.14,0,0,1,243.8,230.49Z"/></g></svg>