<?xml version="1.0" encoding="utf-8"?>
<!-- Generator: Adobe Illustrator 21.0.0, SVG Export Plug-In . SVG Version: 6.00 Build 0)  -->
<svg version="1.1" id="Layer_1" xmlns="http://www.w3.org/2000/svg" xmlns:xlink="http://www.w3.org/1999/xlink" x="0px" y="0px"
	 viewBox="0 0 346.4 400" style="enable-background:new 0 0 346.4 400;" xml:space="preserve">
<style type="text/css">
	.st0{display:none;}
	.st1{display:inline;}
</style>
<title>Asset 1</title>
<g id="Layer_2" class="st0">
	<g id="Logo" class="st1">
		<path d="M173.2,23.1l153.2,88.4v176.9l-153.2,88.5L20,288.5V111.6L173.2,23.1 M173.2,0L0,100v200l173.2,100l173.2-100V100L173.2,0
			z"/>
		<path d="M117,288.4v-24.2c0.1-0.4,0.2-0.9,0.4-1.3l40.5-32.7c-3-2.8-34-30.2-34-30.2h104.3c0.7,0.1,1.3,0.8,1.3,1.6v18.6
			c0,0.7-0.5,1.3-1.3,1.4H177l52,42.3c0.2,0.4,0.4,0.8,0.4,1.3v22.9c0,1.5-1.1,2.2-2.1,1.3l-55.1-44.7l-53.1,45.1
			C118,290.5,117,289.8,117,288.4z"/>
		<path d="M184,131.5v56.8c-0.1,0.6-0.7,1.1-1.4,1h-19c-0.6,0-1.2-0.4-1.2-1v-56.8H184z"/>
		<path d="M117,130.5V111c0.1-0.6,0.6-1,1.2-1h109.9c0.6,0,1.2,0.4,1.2,1v19.5c0,0.6-0.4,1-1.2,1H118.2
			C117.6,131.5,117.1,131.1,117,130.5z"/>
	</g>
</g>
<path class="st0" d="M173.2,26.8C77.5,26.8,0,104.3,0,200s77.5,173.2,173.2,173.2S346.4,295.7,346.4,200S268.9,26.8,173.2,26.8z
	 M173.2,353.2C88.6,353.2,20,284.6,20,200S88.6,46.8,173.2,46.8S326.4,115.4,326.4,200S257.8,353.2,173.2,353.2z"/>
<path d="M346.4,199.4c0,98.5-75.6,177.5-172.3,177.5C76.7,376.9,0,297.9,0,199.4C0,102.1,76.7,23.1,174.1,23.1
	C270.8,23.1,346.4,102.1,346.4,199.4z M28.6,201.1c0,85.3,63,152.3,145.4,152.3c80.7,0,143.7-67,143.7-154
	c0-85.3-63-152.9-143.7-152.9C91.6,46.5,28.6,114.1,28.6,201.1z M243.9,134.2c-7.4-4-28.6-13.2-55.5-13.2
	c-53.8,0-80.2,34.4-80.2,80.2c0,44.7,28.1,80.7,80.7,80.7c22.9,0,44.7-6.3,57.8-14.9l6.9,21.8c-20,13.2-46.4,17.7-70.4,17.7
	c-66.4,0-104.8-45.8-104.8-103.6c0-65.3,51.5-106.5,109.4-106.5c29.8,0,55.5,8.6,63,15.5L243.9,134.2z"/>
</svg>
