<?xml version="1.0" encoding="utf-8"?>
<!-- Generator: Adobe Illustrator 18.1.0, SVG Export Plug-In . SVG Version: 6.00 Build 0)  -->
<svg version="1.2" baseProfile="tiny" id="Layer_1" xmlns="http://www.w3.org/2000/svg" xmlns:xlink="http://www.w3.org/1999/xlink"
	 x="0px" y="0px" viewBox="0 0 71.8 15.9" xml:space="preserve">
<g>
	<g>
		<path d="M42.8,14.7c-0.3-0.2-0.4-0.5-0.5-0.9c-0.1-0.4-0.1-0.9-0.1-1.7V8.4V7.8V3.9c0-0.8,0-1.3,0.1-1.7c0.1-0.4,0.3-0.7,0.5-0.9
			c0.2-0.2,0.5-0.4,0.8-0.5c0.3-0.1,0.7-0.2,1.1-0.2V0.4H37v0.3c0.5,0,0.8,0.1,1.1,0.2c0.3,0.1,0.5,0.2,0.8,0.5
			c0.3,0.2,0.4,0.5,0.5,0.9c0.1,0.4,0.1,0.9,0.1,1.7v8.2c0,0.8,0,1.3-0.1,1.7c-0.1,0.4-0.3,0.7-0.5,0.9c-0.2,0.2-0.5,0.4-0.8,0.5
			c-0.3,0.1-0.7,0.2-1.1,0.2v0.3h7.7l0-0.3c-0.5,0-0.8-0.1-1.1-0.2C43.3,15,43,14.9,42.8,14.7z"/>
		<path d="M53.5,15.1c-0.2-0.1-0.5-0.2-0.9-0.4c-0.5-0.3-1.1-0.8-1.6-1.4l-0.7-0.8L44.8,6l-1.9,1.7l2.7,3.1c0.3,0.3,0.7,0.8,1.1,1.3
			c0.4,0.5,0.7,0.9,0.9,1.2l1.9,2.3h4.8v-0.3C54,15.3,53.7,15.2,53.5,15.1z"/>
	</g>
	<path d="M48.6,0.8C49,1,49.1,1.3,49.1,1.7c0,0.2-0.1,0.4-0.2,0.6c-0.1,0.1-0.2,0.2-0.3,0.3l0,0c0.8-0.7,1.3-1.1,1.6-1.3
		c0.3-0.2,0.5-0.3,0.8-0.4c0.2-0.1,0.5-0.1,0.9-0.2l0-0.3h-4.4v0.3C48,0.7,48.4,0.8,48.6,0.8z"/>
	<g>
		<path d="M20.7,2c0.4-0.6,0.9-1,1.5-1.2c0.5-0.2,1.3-0.3,2.3-0.4h-4.7l0,3.7l0.1,0C20,3.2,20.3,2.5,20.7,2z"/>
		<path d="M26.6,0.4v0.3v2.6v8.8c0,0.8,0,1.3-0.1,1.7c-0.1,0.4-0.3,0.7-0.5,0.9c-0.2,0.2-0.5,0.4-0.8,0.5c-0.3,0.1-0.7,0.2-1.1,0.2
			l0,0.3h7.7v-0.3c-0.5,0-0.8-0.1-1.1-0.2c-0.3-0.1-0.5-0.3-0.8-0.5c-0.2-0.2-0.4-0.5-0.5-0.9c-0.1-0.4-0.1-0.9-0.1-1.7V2.1V0.7V0.4
			H26.6z"/>
		<path d="M33,0.6c0.9,0.2,1.6,0.6,2,1.1c0.5,0.5,0.8,1.3,1,2.3l0.1,0l0-3.7h-4.7C32,0.4,32.6,0.5,33,0.6z"/>
	</g>
	<path d="M63.8,0c4.4,0,7.9,3.6,7.9,8c0,4.4-3.6,8-7.9,8s-7.9-3.6-7.9-8C55.9,3.6,59.5,0,63.8,0z M58.2,8c0,4.4,2.5,8,5.6,8
		c3.1,0,5.6-3.6,5.6-8c0-4.4-2.5-8-5.6-8C60.7,0,58.2,3.6,58.2,8z"/>
	<g>
		<path d="M5.2,3.9c0-0.8,0-1.3,0.1-1.7c0.1-0.4,0.3-0.7,0.5-0.9C6,1.1,6.3,0.9,6.6,0.8c0.3-0.1,0.7-0.2,1.1-0.2V0.4H0l0,0.3
			c0.5,0,0.8,0.1,1.1,0.2c0.3,0.1,0.5,0.2,0.8,0.5c0.3,0.2,0.4,0.5,0.5,0.9c0.1,0.4,0.1,0.9,0.1,1.7l0,8.2c0,0.8,0,1.3-0.1,1.7
			c-0.1,0.4-0.3,0.7-0.5,0.9c-0.2,0.2-0.5,0.4-0.8,0.5c-0.3,0.1-0.7,0.2-1.1,0.2l0,0.3l7.7,0l0-0.3c-0.5,0-0.8-0.1-1.1-0.2
			C6.3,15,6,14.9,5.8,14.7c-0.2-0.2-0.4-0.5-0.5-0.9c-0.1-0.4-0.1-0.9-0.1-1.7l0-4.1c0,0,0,0,0,0c0-0.3,1.9-0.5,4.3-0.5H5.2V3.9z"/>
		<path d="M16.5,2.2c0.1-0.4,0.3-0.7,0.5-0.9c0.2-0.2,0.5-0.4,0.8-0.5c0.3-0.1,0.7-0.2,1.1-0.2V0.4h-7.7l0,0.3
			c0.5,0,0.8,0.1,1.1,0.2c0.3,0.1,0.5,0.2,0.8,0.5c0.2,0.2,0.4,0.5,0.5,0.9c0.1,0.4,0.1,0.9,0.1,1.7v3.6H9.4c2.3,0,4.3,0.2,4.3,0.5
			l0,0v4.1c0,0.8,0,1.3-0.1,1.7c-0.1,0.4-0.3,0.7-0.5,0.9c-0.2,0.2-0.5,0.4-0.8,0.5c-0.3,0.1-0.7,0.2-1.1,0.2v0.3l7.7,0l0-0.3
			c-0.5,0-0.8-0.1-1.1-0.2c-0.3-0.1-0.5-0.3-0.8-0.5c-0.2-0.2-0.4-0.5-0.5-0.9c-0.1-0.4-0.1-0.9-0.1-1.7V3.9
			C16.3,3.1,16.4,2.6,16.5,2.2z"/>
	</g>
</g>
</svg>
