<?xml version="1.0" encoding="utf-8"?>
<!-- Generator: Adobe Illustrator 18.1.0, SVG Export Plug-In . SVG Version: 6.00 Build 0)  -->
<svg version="1.2" baseProfile="tiny" id="Layer_1" xmlns="http://www.w3.org/2000/svg" xmlns:xlink="http://www.w3.org/1999/xlink"
	 x="0px" y="0px" viewBox="0 0 71.8 26.2" xml:space="preserve">
<g>
	<g>
		<path d="M2.6,22.2h3.7v-1.7c0-0.4,0-0.6-0.1-0.8c0-0.2-0.1-0.3-0.2-0.4c-0.1-0.1-0.2-0.2-0.3-0.2C5.6,19,5.4,19,5.2,19v-0.1h3.3
			V19c-0.2,0-0.4,0-0.5,0.1c-0.1,0-0.2,0.1-0.3,0.2c-0.1,0.1-0.2,0.3-0.2,0.4c0,0.2-0.1,0.4-0.1,0.8v3.9c0,0.4,0,0.6,0.1,0.8
			s0.1,0.3,0.2,0.4c0.1,0.1,0.2,0.2,0.3,0.2c0.1,0,0.3,0.1,0.5,0.1V26H5.2v-0.1c0.2,0,0.4,0,0.5-0.1c0.1,0,0.2-0.1,0.3-0.2
			c0.1-0.1,0.2-0.3,0.2-0.4c0-0.2,0.1-0.4,0.1-0.8v-1.9H2.6v1.9c0,0.4,0,0.6,0.1,0.8s0.1,0.3,0.2,0.4c0.1,0.1,0.2,0.2,0.3,0.2
			c0.1,0,0.3,0.1,0.5,0.1V26H0.4v-0.1c0.2,0,0.4,0,0.5-0.1c0.1,0,0.2-0.1,0.3-0.2c0.1-0.1,0.2-0.3,0.2-0.4s0.1-0.4,0.1-0.8v-3.9
			c0-0.4,0-0.6-0.1-0.8s-0.1-0.3-0.2-0.4C1.1,19.2,1,19.1,0.9,19C0.7,19,0.6,19,0.4,19v-0.1h3.3V19c-0.2,0-0.4,0-0.5,0.1
			c-0.1,0-0.2,0.1-0.3,0.2c-0.1,0.1-0.2,0.3-0.2,0.4c0,0.2-0.1,0.4-0.1,0.8V22.2z"/>
		<path d="M14.7,18.8l0.1,1.7l-0.1,0c0-0.3-0.1-0.5-0.2-0.7c-0.1-0.2-0.3-0.4-0.5-0.5c-0.2-0.1-0.4-0.2-0.6-0.3S12.9,19,12.5,19
			h-1.2v3.1h0.3c0.3,0,0.6,0,0.7-0.1s0.3-0.1,0.4-0.2c0.1-0.1,0.2-0.2,0.2-0.4s0.1-0.3,0.1-0.6l0.1,0l0,2.8H13
			c0-0.3-0.1-0.5-0.1-0.6c-0.1-0.2-0.1-0.3-0.3-0.4c-0.1-0.1-0.2-0.2-0.4-0.2c-0.2-0.1-0.4-0.1-0.6-0.1h-0.3v1.2c0,0.5,0,0.8,0,1
			c0,0.2,0.1,0.4,0.1,0.5c0.1,0.3,0.3,0.4,0.5,0.6c0.2,0.1,0.6,0.2,1,0.2c0.4,0,0.8-0.1,1-0.2c0.3-0.1,0.5-0.3,0.7-0.5
			c0.1-0.1,0.2-0.3,0.3-0.5c0.1-0.2,0.2-0.4,0.2-0.8l0.1,0L15.3,26H9.1v-0.1c0.2,0,0.4,0,0.5-0.1c0.1,0,0.2-0.1,0.3-0.2
			c0.1-0.1,0.2-0.3,0.2-0.4s0.1-0.4,0.1-0.8v-3.9c0-0.4,0-0.6-0.1-0.8c0-0.2-0.1-0.3-0.2-0.4c-0.1-0.1-0.2-0.2-0.3-0.2
			C9.4,19,9.3,19,9.1,19v-0.1H14.7z"/>
		<path d="M19.1,18.8V19c-0.2,0-0.4,0-0.5,0.1c-0.1,0-0.2,0.1-0.3,0.2c-0.1,0.1-0.2,0.3-0.3,0.6c0,0.2,0,0.4,0,0.6v3.9
			c0,0.3,0,0.5,0,0.7c0,0.2,0.1,0.3,0.1,0.4c0.1,0.1,0.2,0.2,0.3,0.3c0.1,0.1,0.3,0.1,0.6,0.1V26h-3.3v-0.1c0.2,0,0.4,0,0.5-0.1
			c0.1,0,0.2-0.1,0.3-0.2c0.1-0.1,0.2-0.3,0.2-0.4s0.1-0.4,0.1-0.8v-3.9c0-0.4,0-0.6-0.1-0.8s-0.1-0.3-0.2-0.4
			c-0.1-0.1-0.2-0.2-0.3-0.2c-0.1,0-0.3-0.1-0.5-0.1v-0.1H19.1z"/>
		<path d="M25.1,19c-0.2,0-0.5,0-0.7,0c-0.5,0-0.9,0.1-1.2,0.2s-0.5,0.3-0.7,0.6c-0.2,0.2-0.3,0.6-0.4,1l-0.1,0l0.1-1.9h7.1l0.1,1.9
			l-0.1,0c-0.1-0.5-0.2-0.9-0.4-1.1c-0.2-0.3-0.5-0.4-0.9-0.5C27.5,19,27,19,26.2,19v5.3c0,0.4,0,0.6,0.1,0.8c0,0.2,0.1,0.3,0.2,0.4
			c0.1,0.1,0.2,0.2,0.3,0.2c0.1,0,0.3,0.1,0.5,0.1V26H24v-0.1c0.2,0,0.4,0,0.5-0.1c0.1,0,0.2-0.1,0.3-0.2c0.1-0.1,0.2-0.3,0.2-0.4
			s0.1-0.4,0.1-0.8V19z"/>
		<path d="M29.8,22.5c0-0.6,0.1-1.1,0.4-1.6c0.3-0.5,0.6-0.9,1.1-1.3c0.4-0.3,0.7-0.5,1.2-0.6s0.8-0.2,1.3-0.2
			c0.5,0,1.1,0.1,1.6,0.4c0.5,0.2,0.9,0.6,1.3,1c0.6,0.7,0.9,1.5,0.9,2.4c0,0.4-0.1,0.9-0.2,1.3c-0.2,0.4-0.4,0.8-0.7,1.1
			c-0.4,0.4-0.8,0.8-1.3,1c-0.5,0.2-1,0.4-1.6,0.4c-0.6,0-1.1-0.1-1.6-0.3c-0.5-0.2-0.9-0.5-1.3-1c-0.3-0.3-0.5-0.7-0.7-1.1
			C29.9,23.3,29.8,22.9,29.8,22.5z M31.1,22.5c0,1,0.3,1.9,0.8,2.6c0.2,0.3,0.5,0.5,0.8,0.7c0.3,0.1,0.6,0.2,1,0.2
			c0.4,0,0.7-0.1,1-0.2c0.3-0.1,0.5-0.4,0.8-0.7c0.5-0.7,0.8-1.6,0.8-2.6c0-0.6-0.1-1.1-0.2-1.6s-0.4-0.9-0.6-1.3
			c-0.2-0.3-0.5-0.5-0.7-0.6c-0.3-0.1-0.6-0.2-1-0.2c-0.4,0-0.7,0.1-1,0.2c-0.3,0.1-0.5,0.3-0.7,0.6c-0.3,0.3-0.5,0.8-0.6,1.3
			S31.1,22,31.1,22.5z"/>
		<path d="M39.6,19.8v4.6c0,0.4,0,0.6,0.1,0.8s0.1,0.3,0.2,0.4c0.1,0.1,0.2,0.2,0.3,0.2c0.1,0,0.3,0.1,0.5,0.1V26h-2.4v-0.1
			c0.2,0,0.4,0,0.5-0.1c0.1,0,0.2-0.1,0.3-0.2c0.1-0.1,0.2-0.3,0.2-0.4s0.1-0.4,0.1-0.8v-3.9c0-0.4,0-0.6-0.1-0.8
			c0-0.2-0.1-0.3-0.2-0.4c-0.1-0.1-0.2-0.2-0.3-0.2c-0.1,0-0.3-0.1-0.5-0.1v-0.1h2l4.2,5.4v-3.8c0-0.4,0-0.6-0.1-0.8
			s-0.1-0.3-0.2-0.4c-0.1-0.1-0.2-0.2-0.3-0.2c-0.1,0-0.3-0.1-0.5-0.1v-0.1h2.4V19c-0.3,0-0.6,0.1-0.8,0.3c-0.1,0.1-0.2,0.3-0.2,0.4
			c0,0.2-0.1,0.4-0.1,0.8V26h-0.2L39.6,19.8z"/>
		<path d="M48,26v-0.1c0.2,0,0.4,0,0.5-0.1c0.1,0,0.2-0.1,0.3-0.2c0.1-0.1,0.2-0.3,0.2-0.4s0.1-0.4,0.1-0.8l0-1c0-0.1,0-0.3-0.1-0.5
			c-0.1-0.2-0.2-0.5-0.4-0.8l-1.4-2L47,19.6c-0.2-0.3-0.4-0.4-0.5-0.5c-0.1-0.1-0.2-0.1-0.3-0.1c-0.1,0-0.2,0-0.4,0v-0.1h3.4V19
			c-0.3,0-0.5,0-0.6,0.1c-0.2,0.1-0.3,0.2-0.3,0.5c0,0.1,0,0.2,0.1,0.3c0,0.1,0.1,0.2,0.2,0.4l1.4,2.2l1.2-1.9l0.1-0.2
			c0.1-0.2,0.2-0.4,0.2-0.6c0-0.2-0.1-0.4-0.2-0.5S51.1,19,50.9,19v-0.1h2.4V19C53.1,19,53,19,52.9,19c-0.1,0-0.2,0.1-0.3,0.2
			c-0.2,0.2-0.5,0.6-0.8,1l-1.2,1.8c-0.1,0.2-0.2,0.4-0.3,0.5c0,0.1,0,0.3,0,0.5v1.3c0,0.4,0,0.6,0.1,0.8c0,0.2,0.1,0.3,0.2,0.4
			c0.2,0.2,0.5,0.3,0.8,0.3V26H48z"/>
		<path d="M58.3,22.3l2.2-2.2c0.2-0.2,0.4-0.4,0.4-0.4c0.1-0.1,0.1-0.2,0.1-0.3c0-0.2-0.1-0.3-0.3-0.4c-0.1,0-0.2-0.1-0.4-0.1v-0.1
			h2.2V19c-0.2,0-0.3,0-0.4,0.1c-0.1,0-0.2,0.1-0.3,0.2c-0.1,0.1-0.4,0.3-0.7,0.6l-1.7,1.6l2.4,3.1l0.3,0.4c0.2,0.3,0.4,0.5,0.7,0.6
			c0.1,0.1,0.3,0.2,0.4,0.2c0.1,0,0.2,0.1,0.4,0.1V26h-3.4v-0.1c0.3,0,0.4-0.1,0.6-0.1c0.1-0.1,0.2-0.2,0.2-0.3
			c0-0.1-0.1-0.3-0.2-0.5c-0.1-0.1-0.2-0.3-0.4-0.5c-0.2-0.3-0.4-0.5-0.5-0.6l-1.2-1.5l-0.3,0.3v1.7c0,0.4,0,0.6,0.1,0.8
			s0.1,0.3,0.2,0.4c0.1,0.1,0.2,0.2,0.3,0.2c0.1,0,0.3,0.1,0.5,0.1V26H56v-0.1c0.2,0,0.4,0,0.5-0.1c0.1,0,0.2-0.1,0.3-0.2
			c0.1-0.1,0.2-0.3,0.2-0.4s0.1-0.4,0.1-0.8v-3.9c0-0.4,0-0.6-0.1-0.8s-0.1-0.3-0.2-0.4c-0.1-0.1-0.2-0.2-0.3-0.2
			C56.4,19,56.2,19,56,19v-0.1h3.3V19c-0.2,0-0.4,0-0.5,0.1c-0.1,0-0.2,0.1-0.3,0.2c-0.1,0.1-0.2,0.3-0.2,0.4c0,0.2-0.1,0.4-0.1,0.8
			V22.3z"/>
		<path d="M63.8,22.5c0-0.6,0.1-1.1,0.4-1.6c0.3-0.5,0.6-0.9,1.1-1.3c0.4-0.3,0.7-0.5,1.2-0.6s0.8-0.2,1.3-0.2
			c0.5,0,1.1,0.1,1.6,0.4c0.5,0.2,0.9,0.6,1.3,1c0.6,0.7,0.9,1.5,0.9,2.4c0,0.4-0.1,0.9-0.2,1.3c-0.2,0.4-0.4,0.8-0.7,1.1
			c-0.4,0.4-0.8,0.8-1.3,1c-0.5,0.2-1,0.4-1.6,0.4c-0.6,0-1.1-0.1-1.6-0.3c-0.5-0.2-0.9-0.5-1.3-1c-0.3-0.3-0.5-0.7-0.7-1.1
			C63.9,23.3,63.8,22.9,63.8,22.5z M65.1,22.5c0,1,0.3,1.9,0.8,2.6c0.2,0.3,0.5,0.5,0.8,0.7c0.3,0.1,0.6,0.2,1,0.2
			c0.4,0,0.7-0.1,1-0.2c0.3-0.1,0.5-0.4,0.8-0.7c0.5-0.7,0.8-1.6,0.8-2.6c0-0.6-0.1-1.1-0.2-1.6s-0.4-0.9-0.6-1.3
			c-0.2-0.3-0.5-0.5-0.7-0.6c-0.3-0.1-0.6-0.2-1-0.2c-0.4,0-0.7,0.1-1,0.2c-0.3,0.1-0.5,0.3-0.7,0.6c-0.3,0.3-0.5,0.8-0.6,1.3
			S65.1,22,65.1,22.5z"/>
	</g>
	<g>
		<path d="M42.8,14.7c-0.3-0.2-0.4-0.5-0.5-0.9c-0.1-0.4-0.1-0.9-0.1-1.7V8.4V7.8V3.9c0-0.8,0-1.3,0.1-1.7c0.1-0.4,0.3-0.7,0.5-0.9
			c0.2-0.2,0.5-0.4,0.8-0.5c0.3-0.1,0.7-0.2,1.1-0.2V0.4H37v0.3c0.5,0,0.8,0.1,1.1,0.2c0.3,0.1,0.5,0.2,0.8,0.5
			c0.3,0.2,0.4,0.5,0.5,0.9c0.1,0.4,0.1,0.9,0.1,1.7v8.2c0,0.8,0,1.3-0.1,1.7c-0.1,0.4-0.3,0.7-0.5,0.9c-0.2,0.2-0.5,0.4-0.8,0.5
			c-0.3,0.1-0.7,0.2-1.1,0.2v0.3h7.7l0-0.3c-0.5,0-0.8-0.1-1.1-0.2C43.3,15,43,14.9,42.8,14.7z"/>
		<path d="M53.5,15.1c-0.2-0.1-0.5-0.2-0.9-0.4c-0.5-0.3-1.1-0.8-1.6-1.4l-0.7-0.8L44.8,6l-1.9,1.7l2.7,3.1c0.3,0.3,0.7,0.8,1.1,1.3
			c0.4,0.5,0.7,0.9,0.9,1.2l1.9,2.3h4.8v-0.3C54,15.3,53.7,15.2,53.5,15.1z"/>
	</g>
	<path d="M48.6,0.8C49,1,49.1,1.3,49.1,1.7c0,0.2-0.1,0.4-0.2,0.6c-0.1,0.1-0.2,0.2-0.3,0.3l0,0c0.8-0.7,1.3-1.1,1.6-1.3
		c0.3-0.2,0.5-0.3,0.8-0.4c0.2-0.1,0.5-0.1,0.9-0.2l0-0.3h-4.4v0.3C48,0.7,48.4,0.8,48.6,0.8z"/>
	<g>
		<path d="M20.7,2c0.4-0.6,0.9-1,1.5-1.2c0.5-0.2,1.3-0.3,2.3-0.4h-4.7l0,3.7l0.1,0C20,3.2,20.3,2.5,20.7,2z"/>
		<path d="M26.6,0.4v0.3v2.6v8.8c0,0.8,0,1.3-0.1,1.7c-0.1,0.4-0.3,0.7-0.5,0.9c-0.2,0.2-0.5,0.4-0.8,0.5c-0.3,0.1-0.7,0.2-1.1,0.2
			l0,0.3h7.7v-0.3c-0.5,0-0.8-0.1-1.1-0.2c-0.3-0.1-0.5-0.3-0.8-0.5c-0.2-0.2-0.4-0.5-0.5-0.9c-0.1-0.4-0.1-0.9-0.1-1.7V2.1V0.7V0.4
			H26.6z"/>
		<path d="M33,0.6c0.9,0.2,1.6,0.6,2,1.1c0.5,0.5,0.8,1.3,1,2.3l0.1,0l0-3.7h-4.7C32,0.4,32.6,0.5,33,0.6z"/>
	</g>
	<path d="M63.8,0c4.4,0,7.9,3.6,7.9,8c0,4.4-3.6,8-7.9,8s-7.9-3.6-7.9-8C55.9,3.6,59.5,0,63.8,0z M58.2,8c0,4.4,2.5,8,5.6,8
		c3.1,0,5.6-3.6,5.6-8c0-4.4-2.5-8-5.6-8C60.7,0,58.2,3.6,58.2,8z"/>
	<g>
		<path d="M5.2,3.9c0-0.8,0-1.3,0.1-1.7c0.1-0.4,0.3-0.7,0.5-0.9C6,1.1,6.3,0.9,6.6,0.8c0.3-0.1,0.7-0.2,1.1-0.2V0.4H0l0,0.3
			c0.5,0,0.8,0.1,1.1,0.2c0.3,0.1,0.5,0.2,0.8,0.5c0.3,0.2,0.4,0.5,0.5,0.9c0.1,0.4,0.1,0.9,0.1,1.7l0,8.2c0,0.8,0,1.3-0.1,1.7
			c-0.1,0.4-0.3,0.7-0.5,0.9c-0.2,0.2-0.5,0.4-0.8,0.5c-0.3,0.1-0.7,0.2-1.1,0.2l0,0.3l7.7,0l0-0.3c-0.5,0-0.8-0.1-1.1-0.2
			C6.3,15,6,14.9,5.8,14.7c-0.2-0.2-0.4-0.5-0.5-0.9c-0.1-0.4-0.1-0.9-0.1-1.7l0-4.1c0,0,0,0,0,0c0-0.3,1.9-0.5,4.3-0.5H5.2V3.9z"/>
		<path d="M16.5,2.2c0.1-0.4,0.3-0.7,0.5-0.9c0.2-0.2,0.5-0.4,0.8-0.5c0.3-0.1,0.7-0.2,1.1-0.2V0.4h-7.7l0,0.3
			c0.5,0,0.8,0.1,1.1,0.2c0.3,0.1,0.5,0.2,0.8,0.5c0.2,0.2,0.4,0.5,0.5,0.9c0.1,0.4,0.1,0.9,0.1,1.7v3.6H9.4c2.3,0,4.3,0.2,4.3,0.5
			l0,0v4.1c0,0.8,0,1.3-0.1,1.7c-0.1,0.4-0.3,0.7-0.5,0.9c-0.2,0.2-0.5,0.4-0.8,0.5c-0.3,0.1-0.7,0.2-1.1,0.2v0.3l7.7,0l0-0.3
			c-0.5,0-0.8-0.1-1.1-0.2c-0.3-0.1-0.5-0.3-0.8-0.5c-0.2-0.2-0.4-0.5-0.5-0.9c-0.1-0.4-0.1-0.9-0.1-1.7V3.9
			C16.3,3.1,16.4,2.6,16.5,2.2z"/>
	</g>
</g>
</svg>
