<?xml version="1.0" standalone="no"?>
<!DOCTYPE svg PUBLIC "-//W3C//DTD SVG 20010904//EN"
 "http://www.w3.org/TR/2001/REC-SVG-20010904/DTD/svg10.dtd">
<svg version="1.0" xmlns="http://www.w3.org/2000/svg"
 width="16.000000pt" height="16.000000pt" viewBox="0 0 16.000000 16.000000"
 preserveAspectRatio="xMidYMid meet">
<metadata>
Created by potrace 1.11, written by Peter Selinger 2001-2013
</metadata>
<g transform="translate(0.000000,16.000000) scale(0.004000,-0.004000)"
fill="#000000" stroke="none">
<path d="M1725 3844 c-148 -85 -299 -173 -335 -194 -70 -41 -752 -435 -810
-467 -55 -31 -305 -176 -309 -179 -2 -2 -4 -1879 -1 -1990 0 -11 10 -26 22
-32 13 -6 53 -28 89 -49 161 -93 286 -165 304 -176 45 -28 93 -55 135 -79 59
-32 738 -424 855 -493 50 -29 143 -83 208 -120 l117 -67 238 138 c130 75 246
142 257 148 40 22 360 207 375 217 43 27 242 139 247 139 4 0 14 6 22 14 9 7
43 28 76 46 59 33 507 290 514 296 4 4 4 2004 0 2008 -3 3 -273 158 -374 216
-16 9 -88 51 -160 92 -71 42 -146 85 -165 96 -19 10 -122 70 -228 131 -106 61
-207 120 -225 130 -17 10 -150 87 -294 170 -145 83 -268 154 -275 156 -7 3
-134 -65 -283 -151z m815 -390 c283 -163 536 -309 561 -323 25 -14 132 -75
237 -136 l191 -110 0 -885 1 -885 -238 -137 c-130 -75 -397 -228 -592 -341
-195 -112 -372 -214 -392 -225 -20 -12 -55 -32 -77 -46 -22 -15 -42 -26 -45
-26 -2 0 -46 -25 -97 -55 -57 -34 -96 -51 -103 -46 -6 5 -67 41 -136 81 -69
40 -228 132 -355 205 -126 73 -342 197 -480 277 -137 79 -316 182 -397 229
l-147 84 -1 885 0 885 62 35 c35 19 83 47 108 61 340 197 718 415 850 491 91
53 182 105 202 116 20 12 55 32 77 46 22 15 42 26 45 26 2 0 46 25 97 55 58
34 96 51 103 46 6 -5 243 -143 526 -307z"/>
<path d="M1439 2883 c-4 -58 1 -186 6 -191 4 -4 100 -8 213 -8 114 -1 213 -2
220 -3 9 -1 12 -65 12 -286 0 -157 3 -286 8 -286 37 -7 190 -3 199 4 10 7 13
76 12 283 0 150 2 277 4 282 3 4 103 8 222 7 119 0 219 3 222 7 4 8 7 141 4
191 -1 16 -35 17 -561 17 -526 0 -560 -1 -561 -17z"/>
<path d="M1540 1968 c19 -17 66 -58 105 -92 38 -34 90 -79 115 -101 41 -36 80
-75 80 -80 0 -1 -51 -42 -112 -91 -62 -48 -115 -91 -118 -94 -4 -4 -151 -123
-169 -137 -2 -1 -4 -51 -3 -110 0 -165 0 -166 16 -160 8 3 130 104 271 224
141 120 260 218 265 218 6 0 246 -188 293 -230 74 -66 269 -216 274 -211 3 3
6 62 6 131 0 123 0 125 -27 146 -14 11 -32 26 -39 33 -6 6 -46 38 -87 71 -41
33 -84 67 -95 76 -11 9 -49 41 -85 70 -80 66 -159 131 -177 144 -10 7 67 10
243 10 210 0 257 2 262 13 4 13 6 91 3 175 l-1 27 -527 0 -528 -1 35 -31z"/>
</g>
</svg>
