<?xml version="1.0" standalone="no"?>
<!DOCTYPE svg PUBLIC "-//W3C//DTD SVG 20010904//EN"
 "http://www.w3.org/TR/2001/REC-SVG-20010904/DTD/svg10.dtd">
<svg version="1.0" xmlns="http://www.w3.org/2000/svg"
 width="16.000000pt" height="16.000000pt" viewBox="0 0 16.000000 16.000000"
 preserveAspectRatio="xMidYMid meet">
<metadata>
Created by potrace 1.11, written by Peter Selinger 2001-2013
</metadata>
<g transform="translate(0.000000,16.000000) scale(0.001000,-0.001000)"
fill="#000000" stroke="none">
<path d="M7630 15789 c-536 -309 -751 -434 -790 -458 -19 -11 -42 -24 -50 -28
-8 -4 -46 -26 -85 -48 -38 -23 -90 -53 -115 -67 -25 -14 -85 -49 -135 -78 -49
-29 -110 -64 -135 -78 -46 -25 -242 -139 -340 -197 -30 -18 -75 -44 -100 -57
-25 -14 -72 -41 -105 -61 -33 -19 -79 -45 -101 -58 -142 -82 -639 -369 -799
-461 -104 -61 -210 -122 -235 -136 -25 -14 -168 -97 -319 -184 -150 -87 -276
-158 -279 -158 -3 0 -13 -6 -21 -14 -9 -7 -41 -27 -71 -43 -30 -17 -106 -60
-169 -97 -62 -36 -115 -66 -116 -66 -2 0 -50 -28 -107 -61 -56 -34 -116 -70
-133 -79 -58 -32 -160 -91 -175 -100 -12 -8 -188 -110 -345 -200 -16 -9 -88
-51 -160 -92 -601 -347 -734 -424 -765 -441 -19 -10 -39 -23 -45 -27 -5 -4
-30 -19 -55 -32 -89 -50 -446 -256 -692 -400 l-118 -69 0 -3999 0 -4000 38
-22 c21 -13 47 -29 57 -36 11 -6 26 -15 34 -19 8 -3 90 -51 183 -105 93 -54
172 -98 174 -98 2 0 33 -17 67 -39 34 -21 112 -67 172 -101 61 -35 122 -70
137 -79 15 -9 71 -41 125 -72 150 -86 466 -269 578 -334 55 -32 118 -68 140
-81 22 -12 198 -113 390 -224 193 -112 365 -212 384 -222 19 -11 102 -59 185
-107 228 -133 675 -391 726 -419 25 -14 137 -79 248 -144 112 -65 205 -118
207 -118 2 0 32 -17 66 -38 35 -22 84 -50 109 -64 25 -14 154 -88 285 -165
132 -77 249 -145 260 -151 267 -154 661 -381 695 -400 25 -13 50 -28 55 -32 6
-4 30 -19 55 -32 39 -22 98 -56 205 -118 17 -9 65 -38 108 -64 43 -25 80 -46
82 -46 3 0 39 -21 82 -46 139 -82 273 -159 333 -192 25 -14 63 -36 84 -50 22
-13 58 -34 80 -47 23 -12 107 -60 188 -107 80 -47 152 -88 160 -92 7 -4 22
-12 33 -19 11 -7 62 -36 113 -65 l92 -54 633 365 c347 201 700 404 782 452 83
48 224 130 315 182 91 52 172 99 180 104 17 10 225 130 285 164 22 13 81 46
130 75 103 60 142 82 188 108 17 11 91 53 162 94 132 76 495 286 550 318 17 9
87 50 155 90 69 40 150 86 180 102 30 17 60 34 65 38 6 4 100 59 210 122 110
63 360 207 555 320 195 113 371 215 390 226 19 10 224 129 455 262 231 134
506 292 610 353 105 60 204 117 220 127 140 81 236 136 265 153 101 56 446
256 518 299 l82 49 -2 4002 -3 4001 -220 128 c-121 70 -236 136 -255 146 -19
11 -134 77 -255 147 -266 155 -385 224 -445 257 -87 49 -585 338 -615 356 -16
11 -50 30 -75 44 -40 21 -842 484 -931 537 -19 11 -45 26 -59 34 -14 7 -115
65 -225 129 -187 109 -554 321 -1140 659 -137 79 -257 149 -266 154 -10 6 -46
26 -81 46 -34 19 -148 85 -253 145 -104 61 -210 122 -235 136 -25 14 -112 64
-194 112 -82 48 -172 100 -200 116 -28 15 -89 51 -136 78 -119 70 -503 291
-564 325 -28 16 -78 45 -111 65 -33 20 -73 44 -90 53 -16 8 -96 54 -177 101
-80 47 -152 88 -160 92 -7 4 -22 12 -33 19 -53 32 -203 117 -206 117 -2 0
-168 -95 -369 -211z m491 -785 c63 -36 146 -85 184 -107 39 -23 72 -42 75 -42
3 0 16 -8 30 -16 26 -16 183 -108 415 -241 133 -77 191 -110 520 -301 105 -60
210 -121 235 -135 25 -14 135 -78 245 -142 110 -64 207 -119 215 -123 8 -4 22
-11 30 -17 40 -26 151 -90 156 -90 3 0 18 -8 32 -18 15 -11 52 -33 82 -49 30
-17 138 -79 240 -138 102 -59 334 -193 515 -297 182 -105 342 -199 357 -209
15 -10 29 -19 32 -19 3 0 60 -32 128 -71 67 -40 138 -81 158 -92 19 -10 118
-68 220 -127 102 -59 309 -178 460 -265 151 -87 308 -178 347 -202 40 -23 75
-43 78 -43 2 0 29 -16 59 -35 30 -19 57 -35 60 -35 3 0 35 -18 71 -40 36 -22
70 -40 75 -40 6 0 10 -5 10 -12 0 -6 3 -8 7 -5 3 4 13 1 22 -6 9 -8 70 -45
136 -82 66 -38 242 -139 391 -226 150 -86 291 -168 315 -182 24 -13 58 -33 75
-43 l31 -18 1 -3534 0 -3534 -52 -32 c-28 -18 -71 -44 -96 -58 -40 -23 -86
-49 -210 -121 -19 -11 -48 -28 -65 -38 -16 -11 -37 -22 -45 -26 -8 -4 -71 -40
-139 -80 -67 -40 -124 -73 -126 -73 -2 0 -36 -19 -77 -43 -40 -24 -93 -55
-118 -69 -25 -14 -128 -74 -230 -133 -102 -59 -203 -117 -225 -130 -22 -12
-128 -73 -235 -135 -277 -160 -602 -347 -840 -485 -113 -64 -245 -141 -295
-170 -115 -68 -470 -273 -512 -296 -18 -10 -119 -69 -225 -130 -106 -61 -212
-123 -236 -136 -23 -13 -93 -54 -155 -90 -62 -36 -130 -75 -152 -88 -22 -12
-152 -87 -290 -167 -137 -80 -324 -188 -415 -240 -380 -219 -827 -477 -860
-497 -19 -11 -42 -24 -50 -28 -8 -3 -39 -21 -68 -40 -29 -18 -54 -33 -56 -33
-3 0 -82 -45 -176 -100 -95 -55 -178 -100 -184 -100 -7 0 -16 4 -22 9 -5 5
-175 104 -379 222 -410 235 -643 370 -935 539 -107 62 -211 122 -230 132 -40
23 -380 220 -750 434 -140 81 -280 161 -310 177 -30 16 -62 36 -71 43 -8 8
-18 14 -22 14 -4 0 -41 21 -84 46 -43 26 -94 56 -113 67 -100 56 -762 439
-791 456 -19 12 -40 24 -48 27 -7 4 -128 74 -268 156 -140 81 -257 148 -258
148 -2 0 -50 27 -107 61 -57 34 -121 71 -143 83 -22 13 -101 58 -175 101 -74
43 -155 89 -180 103 -25 14 -61 36 -80 49 -19 12 -38 23 -42 23 -4 0 -37 18
-75 41 -37 22 -75 45 -83 49 -8 5 -55 32 -105 61 -178 103 -721 417 -755 437
-19 11 -49 28 -67 38 l-31 18 0 3537 0 3536 215 124 c119 68 238 137 267 153
28 16 321 185 651 376 330 191 629 363 665 384 36 20 72 41 80 46 8 5 53 32
100 58 47 27 146 84 220 127 74 43 234 135 355 205 121 70 310 179 420 242
200 116 490 283 940 543 132 76 273 158 313 182 41 24 75 43 77 43 2 0 47 26
102 58 54 32 220 129 368 214 149 86 385 222 525 303 140 81 278 160 305 176
28 15 154 88 280 162 127 74 235 135 241 136 6 1 63 -29 125 -65z"/>
<path d="M5766 11584 c-14 -13 -16 -65 -16 -419 0 -389 1 -405 19 -415 13 -7
316 -10 910 -10 l891 0 0 -1144 c0 -998 2 -1145 15 -1156 21 -17 791 -18 823
-1 l22 12 0 1144 0 1145 898 0 c685 0 901 3 910 12 9 9 12 116 12 420 0 392
-1 408 -19 418 -14 7 -727 10 -2235 10 -2000 0 -2216 -2 -2230 -16z"/>
<path d="M6040 7986 c8 -7 58 -51 110 -97 52 -46 97 -86 100 -89 3 -3 41 -36
85 -75 79 -69 132 -116 164 -145 10 -8 53 -46 96 -85 95 -84 131 -115 210
-186 33 -29 74 -65 90 -80 39 -34 227 -201 241 -214 6 -5 63 -57 128 -114 106
-94 130 -121 108 -121 -4 0 -18 -10 -32 -23 -23 -20 -274 -225 -353 -287 -30
-24 -483 -390 -557 -450 -19 -16 -78 -63 -130 -105 -52 -42 -113 -92 -135
-110 -22 -18 -80 -65 -130 -105 -49 -40 -131 -106 -181 -147 -51 -40 -94 -83
-98 -96 -3 -12 -6 -248 -6 -524 0 -443 2 -503 16 -517 8 -9 24 -16 34 -16 16
0 100 61 146 104 6 6 168 144 359 306 286 242 496 421 745 633 14 12 52 44 85
72 72 59 106 88 159 136 23 19 129 109 236 199 107 90 197 167 200 170 13 16
217 183 228 187 7 3 25 -6 40 -19 15 -14 182 -151 372 -305 190 -153 464 -376
610 -494 146 -118 384 -311 530 -429 146 -118 267 -217 270 -220 3 -3 75 -61
160 -130 85 -68 157 -127 160 -130 20 -21 92 -70 104 -70 8 0 22 10 30 22 14
20 16 84 16 500 0 323 -4 484 -11 500 -6 13 -56 59 -111 103 -55 44 -106 85
-112 90 -6 6 -144 118 -306 250 -162 132 -383 311 -490 398 -107 88 -204 166
-215 176 -12 9 -57 45 -100 81 -44 36 -87 70 -95 77 -8 7 -58 47 -110 90 -53
43 -196 159 -318 258 l-221 180 1026 3 c938 2 1028 4 1045 19 17 15 18 41 18
407 0 338 -2 395 -16 414 l-15 22 -2097 0 c-1769 0 -2094 -2 -2082 -14z"/>
</g>
</svg>
