<?xml version="1.0" encoding="utf-8"?>
<!-- Generator: Adobe Illustrator 21.1.0, SVG Export Plug-In . SVG Version: 6.00 Build 0)  -->
<svg version="1.1" id="Logo_w_x2F__Name" xmlns="http://www.w3.org/2000/svg" xmlns:xlink="http://www.w3.org/1999/xlink" x="0px"
	 y="0px" viewBox="0 0 498.7 129.2" style="enable-background:new 0 0 498.7 129.2;" xml:space="preserve">
<style type="text/css">
	.st0{enable-background:new    ;}
	.st1{fill:#FFFFFF;}
	.st2{fill:none;}
</style>
<g id="Name">
	<g class="st0">
		<path class="st1" d="M190.6,14.3h-12v40.2h-9.8V14.3H157V6.2h33.5v8.1H190.6z"/>
		<path class="st1" d="M241.3,34.7c0,6.5-1.5,11.5-4.6,15.1c-3.1,3.6-7.3,5.4-12.8,5.4c-5.4,0-9.7-1.8-12.8-5.3
			c-3.1-3.6-4.7-8.5-4.7-14.9v-8.3c0-6.6,1.5-11.8,4.6-15.6c3.1-3.7,7.4-5.6,12.8-5.6c5.4,0,9.6,1.8,12.7,5.5
			c3.1,3.7,4.7,8.8,4.7,15.4v8.3H241.3z M231.5,26.6c0-4.4-0.6-7.6-1.9-9.7c-1.2-2.1-3.2-3.2-5.8-3.2s-4.5,1-5.7,3.1
			c-1.2,2-1.9,5.2-1.9,9.4v8.6c0,4.2,0.6,7.3,1.9,9.4c1.3,2,3.2,3,5.8,3c2.5,0,4.4-1,5.7-2.9c1.2-2,1.9-5,1.9-9.1V26.6z"/>
		<path class="st1" d="M294.1,54.5h-9.8L270,22.8v31.7h-9.8V6.2h9.8L284.3,38V6.2h9.7L294.1,54.5L294.1,54.5z"/>
		<path class="st1" d="M327.6,27.9l7.3-21.7h10.6l-13,30.8v17.5h-9.9V37l-13-30.8h10.6L327.6,27.9z"/>
	</g>
	<g class="st0">
		<path class="st1" d="M172.9,103.9l-3.9,4.8v13.8h-9.8V74.2h9.8v21.1l3.1-5.2l9-15.9h12l-13.9,21.3l14.1,27.1h-11.6L172.9,103.9z"
			/>
		<path class="st1" d="M241.9,102.7c0,6.5-1.5,11.5-4.6,15.1s-7.3,5.4-12.8,5.4c-5.4,0-9.7-1.8-12.8-5.3c-3.1-3.6-4.7-8.5-4.7-14.9
			v-8.3c0-6.6,1.5-11.8,4.6-15.6c3.1-3.7,7.4-5.6,12.8-5.6c5.4,0,9.6,1.8,12.7,5.5c3.1,3.7,4.7,8.8,4.7,15.4v8.3H241.9z M232.1,94.6
			c0-4.4-0.6-7.6-1.9-9.7c-1.2-2.1-3.2-3.2-5.8-3.2s-4.5,1-5.7,3.1c-1.2,2-1.9,5.2-1.9,9.4v8.6c0,4.2,0.6,7.3,1.9,9.4
			c1.3,2,3.2,3,5.8,3c2.5,0,4.4-1,5.7-2.9c1.2-2,1.9-5,1.9-9.1V94.6z"/>
	</g>
</g>
<g id="Logo">
	<rect id="Bounding_Box" class="st2" width="129.2" height="129.2"/>
	<path id="Hexagon" class="st1" d="M121.4,93.6c0,2.4-1.3,4.5-3.3,5.7l-50.2,29c-2,1.2-4.5,1.2-6.6,0l-50.2-29
		c-2-1.2-3.3-3.3-3.3-5.7v-58c0-2.4,1.3-4.5,3.3-5.7l50.3-29c2-1.2,4.5-1.2,6.6,0l50.2,29c2,1.2,3.3,3.3,3.3,5.7L121.4,93.6
		L121.4,93.6z"/>
	<path id="K_Path" d="M47.5,93l16.8-14.3l17.4,14.1c0.3,0.3,0.7,0.1,0.7-0.4v-7.3c0-0.1-0.1-0.3-0.1-0.4L65.8,71.4H82
		c0.2,0,0.4-0.2,0.4-0.4v-5.9c0-0.2-0.2-0.4-0.4-0.5H49c0,0,9.8,8.7,10.8,9.6L46.9,84.5c-0.1,0.1-0.1,0.3-0.1,0.4v7.6
		C46.8,93,47.1,93.3,47.5,93z"/>
	<path id="T_Path" d="M82.4,36.4v6.2c0,0.2-0.1,0.3-0.4,0.3H68v18c0,0.2-0.2,0.3-0.4,0.3h-6c-0.2,0-0.3-0.1-0.4-0.3v-18h-14
		c-0.2,0-0.3-0.1-0.4-0.3v-6.2c0-0.2,0.2-0.3,0.4-0.3H82C82.2,36.1,82.4,36.2,82.4,36.4z"/>
</g>
</svg>
