<?xml version="1.0" encoding="utf-8"?>
<!-- Generator: Adobe Illustrator 21.1.0, SVG Export Plug-In . SVG Version: 6.00 Build 0)  -->
<svg version="1.1" id="Logo_1_" xmlns="http://www.w3.org/2000/svg" xmlns:xlink="http://www.w3.org/1999/xlink" x="0px" y="0px"
	 viewBox="0 0 129.2 129.2" style="enable-background:new 0 0 129.2 129.2;" xml:space="preserve">
<style type="text/css">
	.st0{fill:none;}
	.st1{fill:#FFFFFF;}
</style>
<g id="Logo">
	<rect id="Bounding_Box" class="st0" width="129.2" height="129.2"/>
	<path id="Hexagon" class="st1" d="M121.4,93.6c0,2.4-1.3,4.5-3.3,5.7l-50.2,29c-2,1.2-4.5,1.2-6.6,0l-50.2-29
		c-2-1.2-3.3-3.3-3.3-5.7v-58c0-2.4,1.3-4.5,3.3-5.7l50.3-29c2-1.2,4.5-1.2,6.6,0l50.2,29c2,1.2,3.3,3.3,3.3,5.7L121.4,93.6
		L121.4,93.6z"/>
	<path id="K_Path" d="M47.5,93l16.8-14.3l17.4,14.1c0.3,0.3,0.7,0.1,0.7-0.4v-7.3c0-0.1-0.1-0.3-0.1-0.4L65.8,71.4H82
		c0.2,0,0.4-0.2,0.4-0.4v-5.9c0-0.2-0.2-0.4-0.4-0.5H49c0,0,9.8,8.7,10.8,9.6L46.9,84.5c-0.1,0.1-0.1,0.3-0.1,0.4v7.6
		C46.8,93,47.1,93.3,47.5,93z"/>
	<path id="T_Path" d="M82.4,36.4v6.2c0,0.2-0.1,0.3-0.4,0.3H68v18c0,0.2-0.2,0.3-0.4,0.3h-6c-0.2,0-0.3-0.1-0.4-0.3v-18h-14
		c-0.2,0-0.3-0.1-0.4-0.3v-6.2c0-0.2,0.2-0.3,0.4-0.3H82C82.2,36.1,82.4,36.2,82.4,36.4z"/>
</g>
</svg>
