<?xml version="1.0" encoding="utf-8"?>
<!-- Generator: Adobe Illustrator 21.1.0, SVG Export Plug-In . SVG Version: 6.00 Build 0)  -->
<svg version="1.1" id="Logo_w_x2F__Name" xmlns="http://www.w3.org/2000/svg" xmlns:xlink="http://www.w3.org/1999/xlink" x="0px"
	 y="0px" viewBox="0 0 498.7 129.2" style="enable-background:new 0 0 498.7 129.2;" xml:space="preserve">
<style type="text/css">
	.st0{enable-background:new    ;}
	.st1{opacity:0.4;enable-background:new    ;}
	.st2{fill:none;}
	.st3{fill:#FFFFFF;}
</style>
<g id="Name">
	<g class="st0">
		<path d="M190.6,26.4h-12v40.2h-9.8V26.4h-11.8v-8.1h33.5V26.4z"/>
		<path d="M240.3,46.8c0,6.5-1.5,11.5-4.6,15.1c-3.1,3.6-7.3,5.4-12.8,5.4c-5.4,0-9.7-1.8-12.8-5.3c-3.1-3.6-4.7-8.5-4.7-14.9v-8.3
			c0-6.6,1.5-11.8,4.6-15.6c3.1-3.7,7.4-5.6,12.8-5.6c5.4,0,9.6,1.8,12.7,5.5c3.1,3.7,4.7,8.8,4.7,15.4V46.8z M230.5,38.7
			c0-4.4-0.6-7.6-1.9-9.7c-1.2-2.1-3.2-3.2-5.8-3.2c-2.6,0-4.5,1-5.7,3.1c-1.2,2-1.9,5.2-1.9,9.4v8.6c0,4.2,0.6,7.3,1.9,9.4
			c1.3,2,3.2,3,5.8,3c2.5,0,4.4-1,5.7-2.9c1.2-2,1.9-5,1.9-9.1V38.7z"/>
		<path d="M292.1,66.6h-9.8L268,34.9v31.7h-9.8V18.3h9.8L282.4,50V18.3h9.7V66.6z"/>
		<path d="M324.5,40l7.3-21.7h10.6l-13,30.8v17.5h-9.9V49.1l-13-30.8h10.6L324.5,40z"/>
		<path d="M398.1,48l-3.9,4.8v13.8h-9.8V18.3h9.8v21.1l3.1-5.2l9-15.9h12l-13.9,21.3l14.1,27.1h-11.6L398.1,48z"/>
		<path d="M466.1,46.8c0,6.5-1.5,11.5-4.6,15.1c-3.1,3.6-7.3,5.4-12.8,5.4c-5.4,0-9.7-1.8-12.8-5.3c-3.1-3.6-4.7-8.5-4.7-14.9v-8.3
			c0-6.6,1.5-11.8,4.6-15.6c3.1-3.7,7.4-5.6,12.8-5.6c5.4,0,9.6,1.8,12.7,5.5c3.1,3.7,4.7,8.8,4.7,15.4V46.8z M456.3,38.7
			c0-4.4-0.6-7.6-1.9-9.7c-1.2-2.1-3.2-3.2-5.8-3.2c-2.6,0-4.5,1-5.7,3.1c-1.2,2-1.9,5.2-1.9,9.4v8.6c0,4.2,0.6,7.3,1.9,9.4
			c1.3,2,3.2,3,5.8,3c2.5,0,4.4-1,5.7-2.9c1.2-2,1.9-5,1.9-9.1V38.7z"/>
	</g>
	<g class="st1">
		<path d="M157,102.2c0-2.8,0.5-4.9,1.6-6.3c1-1.5,2.5-2.2,4.5-2.2c1.7,0,3.1,0.7,4,2.1v-9.3h2.9V112h-2.7l-0.1-1.9
			c-1,1.5-2.3,2.3-4.1,2.3c-1.9,0-3.3-0.7-4.4-2.2c-1.1-1.4-1.6-3.5-1.6-6.1V102.2z M159.9,103.9c0,2,0.3,3.5,0.9,4.4
			c0.6,0.9,1.6,1.4,2.9,1.4c1.5,0,2.6-0.7,3.3-2.2v-9.1c-0.8-1.4-1.8-2.2-3.3-2.2c-1.4,0-2.3,0.5-2.9,1.4c-0.6,0.9-0.9,2.4-0.9,4.4
			V103.9z"/>
		<path d="M180.9,112.4c-2.2,0-4-0.7-5.1-2c-1.2-1.3-1.8-3.3-1.8-5.9v-2.2c0-2.7,0.6-4.8,1.8-6.3c1.2-1.5,2.8-2.3,4.9-2.3
			c2.1,0,3.7,0.7,4.7,2c1,1.3,1.6,3.4,1.6,6.3v1.9h-10v0.4c0,1.9,0.4,3.3,1.1,4.2c0.7,0.9,1.8,1.3,3.1,1.3c0.9,0,1.6-0.2,2.3-0.5
			c0.7-0.3,1.3-0.8,1.9-1.6l1.5,1.9C185.5,111.5,183.5,112.4,180.9,112.4z M180.6,96.2c-1.2,0-2.1,0.4-2.7,1.3s-0.9,2.1-1,3.9h7.1
			V101c-0.1-1.7-0.4-2.9-0.9-3.7S181.7,96.2,180.6,96.2z"/>
		<path d="M195.3,107.6l3.4-13.5h3l-5.3,18h-2.2l-5.4-18h3L195.3,107.6z"/>
		<path d="M215.7,116.5h-2.5V87.8h2.5V116.5z"/>
		<path d="M228,102.2c0-2.8,0.5-4.9,1.6-6.3c1-1.5,2.5-2.2,4.5-2.2c1.7,0,3.1,0.7,4,2.1v-9.3h2.9V112h-2.7l-0.1-1.9
			c-1,1.5-2.3,2.3-4.1,2.3c-1.9,0-3.3-0.7-4.4-2.2c-1.1-1.4-1.6-3.5-1.6-6.1V102.2z M230.9,103.9c0,2,0.3,3.5,0.9,4.4
			c0.6,0.9,1.6,1.4,2.9,1.4c1.5,0,2.6-0.7,3.3-2.2v-9.1c-0.8-1.4-1.8-2.2-3.3-2.2c-1.4,0-2.3,0.5-2.9,1.4c-0.6,0.9-0.9,2.4-0.9,4.4
			V103.9z"/>
		<path d="M251.9,112.4c-2.2,0-4-0.7-5.1-2c-1.2-1.3-1.8-3.3-1.8-5.9v-2.2c0-2.7,0.6-4.8,1.8-6.3c1.2-1.5,2.8-2.3,4.9-2.3
			c2.1,0,3.7,0.7,4.7,2c1,1.3,1.6,3.4,1.6,6.3v1.9h-10v0.4c0,1.9,0.4,3.3,1.1,4.2c0.7,0.9,1.8,1.3,3.1,1.3c0.9,0,1.6-0.2,2.3-0.5
			c0.7-0.3,1.3-0.8,1.9-1.6l1.5,1.9C256.5,111.5,254.5,112.4,251.9,112.4z M251.6,96.2c-1.2,0-2.1,0.4-2.7,1.3s-0.9,2.1-1,3.9h7.1
			V101c-0.1-1.7-0.4-2.9-0.9-3.7S252.7,96.2,251.6,96.2z"/>
		<path d="M270.2,107.4c0-0.6-0.2-1.2-0.7-1.6c-0.5-0.5-1.4-1-2.8-1.6c-1.6-0.7-2.7-1.2-3.3-1.7c-0.6-0.5-1.1-1-1.5-1.6
			c-0.3-0.6-0.5-1.3-0.5-2.1c0-1.5,0.5-2.7,1.6-3.6c1.1-1,2.4-1.5,4.1-1.5c1.8,0,3.2,0.5,4.2,1.5c1.1,1,1.6,2.3,1.6,3.9H270
			c0-0.8-0.3-1.5-0.8-2.1c-0.5-0.6-1.2-0.9-2.1-0.9c-0.9,0-1.5,0.2-2,0.7c-0.5,0.4-0.7,1-0.7,1.8c0,0.6,0.2,1.1,0.5,1.4
			c0.4,0.4,1.2,0.8,2.6,1.4c2.2,0.9,3.7,1.7,4.5,2.5c0.8,0.8,1.2,1.8,1.2,3.1c0,1.6-0.5,2.8-1.6,3.8c-1.1,0.9-2.5,1.4-4.3,1.4
			c-1.9,0-3.4-0.5-4.6-1.6c-1.2-1.1-1.7-2.4-1.7-4.1h3c0,1,0.3,1.8,0.9,2.3c0.6,0.6,1.4,0.8,2.4,0.8c1,0,1.7-0.2,2.2-0.7
			C269.9,108.8,270.2,108.2,270.2,107.4z"/>
		<path d="M280.3,89.3c0,0.5-0.1,0.9-0.4,1.2c-0.3,0.3-0.7,0.5-1.3,0.5c-0.6,0-1-0.2-1.2-0.5c-0.3-0.3-0.4-0.7-0.4-1.2
			s0.1-0.9,0.4-1.3c0.3-0.3,0.7-0.5,1.2-0.5s1,0.2,1.3,0.5S280.3,88.8,280.3,89.3z M280.1,112h-2.9V94h2.9V112z"/>
		<path d="M284.1,102.2c0-2.8,0.5-4.9,1.5-6.4s2.5-2.2,4.5-2.2c1.8,0,3.2,0.8,4.2,2.3l0.1-2h2.7v18.1c0,2.2-0.6,3.9-1.7,5.1
			s-2.7,1.8-4.8,1.8c-0.9,0-1.9-0.2-3-0.7c-1.1-0.4-1.9-1-2.5-1.6l1.2-2c1.2,1.2,2.6,1.8,4,1.8c2.4,0,3.7-1.3,3.8-4v-2.3
			c-1,1.4-2.3,2.1-4.1,2.1c-1.9,0-3.3-0.7-4.4-2.1c-1-1.4-1.6-3.4-1.6-6V102.2z M287.1,103.9c0,2,0.3,3.5,0.9,4.4
			c0.6,0.9,1.6,1.4,2.9,1.4c1.5,0,2.6-0.7,3.3-2.2v-9c-0.8-1.5-1.8-2.2-3.3-2.2c-1.4,0-2.3,0.5-2.9,1.4c-0.6,0.9-0.9,2.4-0.9,4.4
			V103.9z"/>
		<path d="M304.2,94l0.1,1.9c1.1-1.5,2.6-2.3,4.4-2.3c3.2,0,4.8,2.1,4.8,6.4V112h-2.9v-11.8c0-1.4-0.2-2.4-0.7-3
			c-0.5-0.6-1.2-0.9-2.1-0.9c-0.7,0-1.4,0.2-2,0.7c-0.6,0.5-1,1.1-1.4,1.9V112h-2.9V94H304.2z"/>
	</g>
</g>
<g id="Logo">
	<rect id="Bounding_Box" class="st2" width="129.2" height="129.2"/>
	<path id="Hexagon" d="M121.4,93.6c0,2.4-1.3,4.5-3.3,5.7l-50.2,29c-2,1.2-4.5,1.2-6.6,0l-50.2-29c-2-1.2-3.3-3.3-3.3-5.7v-58
		c0-2.4,1.3-4.5,3.3-5.7l50.3-29c2-1.2,4.5-1.2,6.6,0l50.2,29c2,1.2,3.3,3.3,3.3,5.7L121.4,93.6L121.4,93.6z"/>
	<path id="K_Path" class="st3" d="M47.5,93l16.8-14.3l17.4,14.1c0.3,0.3,0.7,0.1,0.7-0.4v-7.3c0-0.1-0.1-0.3-0.1-0.4L65.8,71.4H82
		c0.2,0,0.4-0.2,0.4-0.4v-5.9c0-0.2-0.2-0.4-0.4-0.5H49c0,0,9.8,8.7,10.8,9.6L46.9,84.5c-0.1,0.1-0.1,0.3-0.1,0.4v7.6
		C46.8,93,47.1,93.3,47.5,93z"/>
	<path id="T_Path" class="st3" d="M82.4,36.4v6.2c0,0.2-0.1,0.3-0.4,0.3H68v18c0,0.2-0.2,0.3-0.4,0.3h-6c-0.2,0-0.3-0.1-0.4-0.3v-18
		h-14c-0.2,0-0.3-0.1-0.4-0.3v-6.2c0-0.2,0.2-0.3,0.4-0.3H82C82.2,36.1,82.4,36.2,82.4,36.4z"/>
</g>
</svg>
