<?xml version="1.0" encoding="UTF-8"?>
<svg id="Layer_2" data-name="Layer 2" xmlns="http://www.w3.org/2000/svg" viewBox="0 0 187.19 87.62">
  <g id="Layer_2-2" data-name="Layer 2">
    <g>
      <path d="M114.22,54.3c1.37-1.2,2.82-2.31,4.08-3.61,3.94-4.04,7.83-8.14,11.72-12.22,2.97-3.12,5.9-6.28,8.91-9.36,.71-.72,1.61-1.3,2.51-1.77,1.49-.78,3.16,.18,3.22,1.87,.03,.82-.21,1.72-.54,2.48-.7,1.61-1.54,3.15-2.4,4.89,1.01-.44,1.88-.89,2.8-1.19,.71-.23,1.48-.4,2.22-.39,1.41,.03,2.06,.73,2.55,2.43,1.58,.09,3.17,.19,4.75,.26,1.3,.06,2.05,.84,2.58,1.9,.39,.78,.34,1.58-.3,2.21-.68,.66-1.52,.83-2.38,.37-1.64-.88-3.26-.87-4.93-.08-1.07,.51-2.29,.89-3.27-.05-.57-.55-.82-1.43-1.27-2.25-.78,.36-1.68,.85-2.63,1.21-.83,.31-1.7,.63-2.57,.7-1.9,.14-3.12-1.33-2.79-3.21,.05-.29,.12-.57,.25-1.15-6.48,6.94-12.64,13.81-19.75,19.92,.35,.03,.62,.08,.89,.08,10.63,0,21.27-.03,31.9,0,5.18,.01,10.36,.07,15.54,.24,1.53,.05,3.1,.39,4.55,.9,2.32,.83,3.21,2.69,2.86,5.15-.34,2.44-1.56,4.5-2.83,6.52-.97,1.54-2.04,3.03-3.06,4.54-.21,.31-.4,.64-.43,1.11,1.45-.64,2.88-1.3,4.34-1.9,1.84-.76,3.65-1.58,5.69-1.69,2.48-.14,3.74,1.47,3.98,3.12,.41,2.87,1.98,4.94,3.98,6.81,.7,.66,1.41,1.32,2.09,1.99,.91,.9,.93,2.06,.08,2.92-.75,.76-1.92,.8-2.78-.01-1.42-1.35-2.81-2.73-4.19-4.12-1.47-1.48-2.35-3.27-2.73-5.32-.08-.45-.26-.88-.43-1.46-.97,.3-1.91,.51-2.78,.88-2.33,.98-4.6,2.07-6.94,3.02-1.16,.47-2.39,.84-3.62,1.04-2.05,.33-3.57-1.34-2.79-3.25,.75-1.81,1.97-3.43,3.02-5.11,1.62-2.62,3.27-5.23,4.9-7.84,.09-.14,.15-.3,.21-.45,.75-1.87,.41-2.52-1.57-2.68-2.18-.17-4.38-.3-6.57-.3-14.82-.04-29.64-.04-44.46-.05-8.24,0-16.48,0-24.72,0-1.32,0-2.05-.44-2.37-1.4-.28-.83,0-1.82,.82-2.25,.5-.27,1.13-.38,1.7-.39,5.85-.02,11.7,0,17.54,0,.33,0,.66,0,.98,0-.17-4.88,1.5-9.32,2.69-13.93-2.69-.33-5.18-.94-6.87-3.4-.85,.86-1.62,1.66-2.42,2.43-.62,.59-1.26,1.19-1.95,1.68-1.83,1.3-3.62,.53-4.02-1.69-.02-.13-.07-.25-.14-.51-.97,.09-1.95,.19-2.92,.25-.66,.04-1.33,.05-1.99,0-1.53-.1-2.26-.86-2.52-2.62-1.17,.37-2.34,.71-3.49,1.09-3.79,1.26-7.64,2.26-11.61,2.73-1.51,.17-3.07,.18-4.37-.84-.28-.22-.54-.51-.71-.82-1.04-1.97-.36-6.11,1.24-7.7,1-.99,2.12-1.21,3.06-.62,.89,.57,1.26,1.79,.85,3.02-.31,.93-.66,1.86-1.08,3.03,1.3-.18,2.43-.22,3.49-.52,4.47-1.25,8.92-2.59,13.38-3.88,.54-.16,1.09-.31,1.65-.35,1.74-.14,2.9,1.09,2.72,2.83-.02,.16,0,.31,0,.55,2.07-.12,4.26-.93,5.84,1.22,1.03-.97,1.94-1.93,2.96-2.76,2.15-1.74,4.08-1.32,5.4,1.09,.61,1.12,3.31,2.14,4.48,1.63,.26-.12,.44-.54,.55-.86,2.74-8.5,5.44-17.02,8.21-25.51,.72-2.2,1.6-4.36,2.49-6.5,.2-.49,.64-.97,1.09-1.24,1.33-.79,3.13,.16,3.07,1.75-.07,2.14-.34,4.3-.73,6.41-1.52,8.18-4,16.1-6.84,23.9-.69,1.9-1.24,3.93-3.31,4.84-.98,.43-1.31,1.16-1.54,2.1-.73,2.96-1.53,5.91-2.29,8.87-.1,.38-.14,.77-.21,1.15l.27,.16Z"/>
      <path d="M61.25,27.53c.03,4.19-.51,8.85-1.47,13.44-1.29,6.15-3.09,12.15-5.43,18-2.57,6.43-5.71,12.58-9.28,18.5-1.63,2.7-3.49,5.25-5.31,7.83-.38,.54-1,.98-1.6,1.29-.84,.43-1.85,.11-2.41-.61-.53-.68-.47-1.62,.08-2.4,2.06-2.92,4.26-5.76,6.13-8.79,5.89-9.53,10.22-19.74,12.96-30.61,1.69-6.73,2.7-13.56,2.29-20.52-.27-4.47-1.17-8.82-3.38-12.79-1.8-3.24-4.59-5.15-8.14-6.05-4.68-1.18-9.37-.88-14.05-.11-5.37,.88-10.57,2.36-15.37,4.98-4.56,2.49-8.8,5.44-12.57,9.05-.92,.88-2.18,.97-3.06,.19-.81-.71-.86-2.03,.08-2.92,1.34-1.28,2.78-2.46,4.24-3.6,3.35-2.62,6.82-5.07,10.68-6.91C20.05,3.34,24.68,1.89,29.51,.99c4.63-.86,9.26-1.33,13.96-.69,4.39,.6,8.41,2.04,11.51,5.33,1.74,1.85,2.97,4.07,3.9,6.44,1.58,4.03,2.62,10.57,2.37,15.47Z"/>
    </g>
  </g>
</svg>