<svg xmlns="http://www.w3.org/2000/svg" xmlns:xlink="http://www.w3.org/1999/xlink" viewBox="0 0 1035 360"><defs><style>.cls-1,.cls-3{opacity:0;}.cls-2,.cls-3{fill:none;}.cls-3{stroke:#000;stroke-miterlimit:10;stroke-width:0.1px;}.cls-4{fill:gray;}</style><symbol id="Logo_Text" data-name="Logo Text" viewBox="0 0 557.66 369.9"><g id="Text_Outlines" data-name="Text Outlines"><path d="M93.9,47.92H62V155.2H35.88V47.92H4.52V26.22H93.9Z"/><path d="M233.47,102.31q0,26-12.27,40.31T187.14,157q-21.7,0-34.1-14.22t-12.58-39.82V80.88q0-26.58,12.31-41.5T187,24.45q21.53,0,33.93,14.66t12.58,41.15ZM207.34,80.7q0-17.45-5-26T187,46.24q-10.36,0-15.32,8.19T166.5,79.37v22.94q0,16.92,5,24.94t15.59,8q10.19,0,15.15-7.84t5-24.32Z"/><path d="M378.62,155.2h-26L314.49,70.6v84.6h-26v-129h26l38.18,84.69V26.22h26Z"/><path d="M472.22,84.15l19.4-57.93H520l-34.55,82.21V155.2H459V108.43L424.38,26.22h28.35Z"/><path d="M46.68,271,36.41,283.89v36.85h-26v-129h26V248l8.24-13.91,24-42.34h31.89L63.6,248.46l37.56,72.28H70.25Z"/><path d="M235.06,267.86q0,26-12.27,40.3t-34.06,14.35q-21.7,0-34.1-14.22t-12.58-39.82V246.42q0-26.58,12.31-41.5T188.56,190q21.53,0,33.93,14.66t12.58,41.15Zm-26.13-21.61q0-17.45-5-26t-15.41-8.5q-10.36,0-15.32,8.19t-5.14,24.94v22.94q0,16.92,5,24.94t15.59,8q10.19,0,15.15-7.84t5-24.32Z"/><path class="cls-4" d="M412.18,225.39q0-9,3.36-13.71A11.15,11.15,0,0,1,425.2,207a10,10,0,0,1,8.71,4.53V191.35h6.37v55.28h-5.83l-.32-4.17a10,10,0,0,1-9,4.89,11.1,11.1,0,0,1-9.48-4.7q-3.44-4.7-3.51-13.26Zm6.37,3.61q0,6.54,1.94,9.61t6.33,3.07q4.75,0,7.09-4.78V217.29q-2.45-4.67-7.05-4.67-4.39,0-6.33,3.07t-2,9.43Z"/><path class="cls-4" d="M467.68,247.34q-7.27,0-11.15-4.34t-4-12.72v-4.71q0-8.71,3.8-13.66A12.6,12.6,0,0,1,467,207q6.84,0,10.22,4.35t3.45,13.57v4.17H458.9v.9q0,6.26,2.36,9.1a8.31,8.31,0,0,0,6.78,2.84,11,11,0,0,0,4.95-1.06,12.3,12.3,0,0,0,4-3.37l3.31,4Q476.17,247.34,467.68,247.34ZM467,212.43a6.68,6.68,0,0,0-5.87,2.72q-1.91,2.72-2.16,8.44h15.33v-.86q-.25-5.54-2-7.92A6.16,6.16,0,0,0,467,212.43Z"/><path class="cls-4" d="M502.53,236.94l7.38-29.26h6.48l-11.55,38.94h-4.75l-11.7-38.94h6.48Z"/><path class="cls-4" d="M309.75,299.09q0-9,3.36-13.71a11.15,11.15,0,0,1,9.66-4.71,10,10,0,0,1,8.71,4.53V265h6.37v55.28H332l-.32-4.17a10,10,0,0,1-9,4.89,11.1,11.1,0,0,1-9.48-4.7q-3.44-4.7-3.51-13.26Zm6.37,3.61q0,6.54,1.94,9.62t6.33,3.07q4.75,0,7.09-4.78V291q-2.45-4.67-7.05-4.67-4.39,0-6.33,3.07t-2,9.43Z"/><path class="cls-4" d="M365.26,321q-7.27,0-11.15-4.34t-4-12.72v-4.71q0-8.71,3.8-13.66a12.6,12.6,0,0,1,10.6-4.95q6.84,0,10.22,4.35t3.45,13.57v4.17H356.48v.9q0,6.26,2.36,9.1a8.31,8.31,0,0,0,6.78,2.84,11,11,0,0,0,4.95-1.06,12.31,12.31,0,0,0,4-3.37l3.31,4Q373.75,321,365.26,321Zm-.72-34.91a6.68,6.68,0,0,0-5.87,2.72q-1.91,2.72-2.16,8.44h15.33v-.86q-.25-5.54-2-7.92A6.16,6.16,0,0,0,364.54,286.14Z"/><path class="cls-4" d="M408.45,310.35a4.71,4.71,0,0,0-1.55-3.53,23,23,0,0,0-6-3.46,39.1,39.1,0,0,1-7.25-3.63,10.34,10.34,0,0,1-3.15-3.44,9.5,9.5,0,0,1-1-4.59,10.21,10.21,0,0,1,3.47-7.9,14.17,14.17,0,0,1,18,.16,11.25,11.25,0,0,1,3.46,8.49H408.1a6.27,6.27,0,0,0-1.76-4.48,5.94,5.94,0,0,0-4.5-1.85,6.32,6.32,0,0,0-4.41,1.45,5,5,0,0,0-1.6,3.89A4.24,4.24,0,0,0,397,294.6q1.17,1.19,5.63,3.12,7.09,2.78,9.64,5.42a9.29,9.29,0,0,1,2.55,6.72,10.25,10.25,0,0,1-3.49,8.13q-3.49,3-9.36,3a14,14,0,0,1-9.86-3.49,11.53,11.53,0,0,1-3.78-8.85h6.41a7.64,7.64,0,0,0,12.05,5.49A4.79,4.79,0,0,0,408.45,310.35Z"/><path class="cls-4" d="M434.16,271.06a4.07,4.07,0,0,1-.9,2.7,3.35,3.35,0,0,1-2.73,1.08,3.31,3.31,0,0,1-2.7-1.08,4.07,4.07,0,0,1-.9-2.7,4.22,4.22,0,0,1,.9-2.74,3.82,3.82,0,0,1,5.42,0A4.18,4.18,0,0,1,434.16,271.06Zm-.5,49.27h-6.37V281.39h6.37Z"/><path class="cls-4" d="M446.09,299.09q0-9.1,3.31-13.76t9.68-4.66a10,10,0,0,1,9,5.07l.32-4.35h5.76v39.3q0,7.23-3.71,11.1t-10.33,3.87a17.75,17.75,0,0,1-6.46-1.42,13.58,13.58,0,0,1-5.38-3.51l2.59-4.39a12.25,12.25,0,0,0,8.75,3.89q8,0,8.17-8.67v-5.07A10,10,0,0,1,459,321a11.08,11.08,0,0,1-9.43-4.55q-3.38-4.55-3.53-13.08Zm6.37,3.61q0,6.54,1.93,9.62t6.31,3.07q4.75,0,7.13-4.85V291.1q-2.48-4.78-7.05-4.78-4.39,0-6.33,3.07t-2,9.43Z"/><path class="cls-4" d="M493.35,281.39l.18,4.21a11.36,11.36,0,0,1,9.46-4.93q10.33,0,10.47,13.78v25.87h-6.33V294.74q0-4.57-1.53-6.5a5.51,5.51,0,0,0-4.59-1.93,6.46,6.46,0,0,0-4.26,1.58,11.41,11.41,0,0,0-3,4.14v28.29h-6.37V281.39Z"/></g></symbol><symbol id="Logo-2" data-name="Logo" viewBox="0 0 340 342.38"><g id="Box"><g class="cls-1"><rect class="cls-2" y="1.19" width="340" height="340"/></g><path d="M170,17c6.7,0,13.24,1.46,17.48,3.91l103.92,60c9,5.19,17.48,19.9,17.48,30.27v120c0,10.37-8.49,25.08-17.48,30.27l-103.92,60c-4.24,2.45-10.77,3.91-17.48,3.91s-13.24-1.46-17.48-3.91l-103.92-60c-9-5.19-17.48-19.9-17.48-30.27v-120c0-10.37,8.49-25.08,17.48-30.27l103.92-60C156.76,18.47,163.3,17,170,17m0-17c-9.42,0-18.84,2.06-26,6.19L40.1,66.19c-14.29,8.25-26,28.5-26,45v120c0,16.5,11.69,36.75,26,45l103.92,60c7.14,4.13,16.56,6.19,26,6.19s18.84-2.06,26-6.19l103.92-60c14.29-8.25,26-28.5,26-45v-120c0-16.5-11.69-36.75-26-45L196,6.19C188.84,2.06,179.42,0,170,0Z"/></g><g id="Type"><rect class="cls-3" x="80" y="81.19" width="180" height="180"/><path d="M118.6,252v-22.1a3.08,3.08,0,0,1,.39-1.16l37-29.94c-2.7-2.57-31.1-27.63-31.1-27.63h95.35a1.41,1.41,0,0,1,1.16,1.41v17a1.27,1.27,0,0,1-1.16,1.28H173.47L221,229.53a3.07,3.07,0,0,1,.39,1.16v20.95c0,1.41-1,2.06-1.93,1.16L169.1,211.92l-48.57,41.25C119.5,253.94,118.6,253.3,118.6,252Z"/><path d="M179.83,108.53v51.9a1.16,1.16,0,0,1-1.23.92H161.3a1,1,0,0,1-1.13-.92v-51.9Z"/><path d="M118.6,107.61V89.79a1.13,1.13,0,0,1,1.13-.92H220.27a1,1,0,0,1,1.13.92v17.81c0,.51-.41.92-1.13.92H119.73A1,1,0,0,1,118.6,107.61Z"/></g></symbol></defs><title>Logo Complete</title><g id="Logo_Complete" data-name="Logo Complete"><use id="Logo_Text-3" data-name="Logo Text" width="557.66" height="369.9" transform="translate(414.28 8.63)" xlink:href="#Logo_Text"/><use width="340" height="342.38" transform="translate(10 8.81)" xlink:href="#Logo-2"/></g></svg>