<svg xmlns="http://www.w3.org/2000/svg" viewBox="0 0 360 360"><defs><style>.cls-1,.cls-4{opacity:0;}.cls-2,.cls-4{fill:none;}.cls-3{fill:#fff;}.cls-4{stroke:#000;stroke-miterlimit:10;stroke-width:0.1px;}</style></defs><title>Logo - Invert</title><g id="Logo_-_Invert" data-name="Logo - Invert"><g id="Box"><g class="cls-1"><rect class="cls-2" x="17.43" y="10" width="340" height="340"/></g><path class="cls-3" d="M187.43,25.82c6.7,0,13.24,1.46,17.48,3.91l103.92,60c9,5.19,17.48,19.9,17.48,30.27V240c0,10.37-8.49,25.08-17.48,30.27l-103.92,60c-4.24,2.45-10.77,3.91-17.48,3.91s-13.24-1.46-17.48-3.91L66,270.27c-9-5.19-17.48-19.9-17.48-30.27V120c0-10.37,8.49-25.08,17.48-30.27L170,29.73c4.24-2.45,10.77-3.91,17.48-3.91m0-17c-9.42,0-18.84,2.06-26,6.19L57.53,75c-14.29,8.25-26,28.5-26,45V240c0,16.5,11.69,36.75,26,45l103.92,60c7.14,4.13,16.56,6.19,26,6.19s18.84-2.06,26-6.19l103.92-60c14.29-8.25,26-28.5,26-45V120c0-16.5-11.69-36.75-26-45L213.42,15c-7.14-4.12-16.56-6.19-26-6.19Z"/></g><g id="Type"><rect class="cls-4" x="97.43" y="90" width="180" height="180"/><path class="cls-3" d="M136,260.83v-22.1a3.08,3.08,0,0,1,.39-1.16l37-29.94c-2.7-2.57-31.1-27.63-31.1-27.63h95.35a1.41,1.41,0,0,1,1.16,1.41v17a1.27,1.27,0,0,1-1.16,1.28H190.9l47.55,38.68a3.07,3.07,0,0,1,.39,1.16v20.95c0,1.41-1,2.06-1.93,1.16l-50.37-40.86L138,262C136.93,262.76,136,262.11,136,260.83Z"/><path class="cls-3" d="M197.26,117.34v51.9a1.16,1.16,0,0,1-1.23.92h-17.3a1,1,0,0,1-1.13-.92v-51.9Z"/><path class="cls-3" d="M136,116.42V98.61a1.13,1.13,0,0,1,1.13-.92H237.71a1,1,0,0,1,1.13.92v17.81c0,.51-.41.92-1.13.92H137.16A1,1,0,0,1,136,116.42Z"/></g></g></svg>