<svg id="Logo" xmlns="http://www.w3.org/2000/svg" xmlns:xlink="http://www.w3.org/1999/xlink" viewBox="0 0 360 360"><defs><style>.cls-1,.cls-3{opacity:0;}.cls-2,.cls-3{fill:none;}.cls-3{stroke:#000;stroke-miterlimit:10;stroke-width:0.1px;}</style><symbol id="Logo-2" data-name="Logo" viewBox="0 0 340 342.38"><g id="Box"><g class="cls-1"><rect class="cls-2" y="1.19" width="340" height="340"/></g><path d="M170,17c6.7,0,13.24,1.46,17.48,3.91l103.92,60c9,5.19,17.48,19.9,17.48,30.27v120c0,10.37-8.49,25.08-17.48,30.27l-103.92,60c-4.24,2.45-10.77,3.91-17.48,3.91s-13.24-1.46-17.48-3.91l-103.92-60c-9-5.19-17.48-19.9-17.48-30.27v-120c0-10.37,8.49-25.08,17.48-30.27l103.92-60C156.76,18.47,163.3,17,170,17m0-17c-9.42,0-18.84,2.06-26,6.19L40.1,66.19c-14.29,8.25-26,28.5-26,45v120c0,16.5,11.69,36.75,26,45l103.92,60c7.14,4.13,16.56,6.19,26,6.19s18.84-2.06,26-6.19l103.92-60c14.29-8.25,26-28.5,26-45v-120c0-16.5-11.69-36.75-26-45L196,6.19C188.84,2.06,179.42,0,170,0Z"/></g><g id="Type"><rect class="cls-3" x="80" y="81.19" width="180" height="180"/><path d="M118.6,252v-22.1a3.08,3.08,0,0,1,.39-1.16l37-29.94c-2.7-2.57-31.1-27.63-31.1-27.63h95.35a1.41,1.41,0,0,1,1.16,1.41v17a1.27,1.27,0,0,1-1.16,1.28H173.47L221,229.53a3.07,3.07,0,0,1,.39,1.16v20.95c0,1.41-1,2.06-1.93,1.16L169.1,211.92l-48.57,41.25C119.5,253.94,118.6,253.3,118.6,252Z"/><path d="M179.83,108.53v51.9a1.16,1.16,0,0,1-1.23.92H161.3a1,1,0,0,1-1.13-.92v-51.9Z"/><path d="M118.6,107.61V89.79a1.13,1.13,0,0,1,1.13-.92H220.27a1,1,0,0,1,1.13.92v17.81c0,.51-.41.92-1.13.92H119.73A1,1,0,0,1,118.6,107.61Z"/></g></symbol></defs><title>Logo</title><use id="Logo-4" data-name="Logo" width="340" height="342.38" transform="translate(10 8.81)" xlink:href="#Logo-2"/></svg>