<svg xmlns="http://www.w3.org/2000/svg" viewBox="0 0 1035 360"><defs><style>.cls-1{fill:#fff;}.cls-2{fill:gray;}.cls-3,.cls-5{opacity:0;}.cls-4,.cls-5{fill:none;}.cls-5{stroke:#000;stroke-miterlimit:10;stroke-width:0.1px;}</style></defs><title>Logo Complete - Invert</title><g id="Logo_Complete_-_Invert" data-name="Logo Complete - Invert"><g id="Text_Outlines" data-name="Text Outlines"><path class="cls-1" d="M508.18,56.55H476.29V163.83H450.16V56.55H418.8V34.85h89.38Z"/><path class="cls-1" d="M647.75,110.94q0,26-12.27,40.31T601.42,165.6q-21.7,0-34.1-14.22t-12.58-39.82V89.51q0-26.58,12.31-41.5t34.19-14.93q21.53,0,33.93,14.66t12.58,41.15ZM621.62,89.33q0-17.45-5-26t-15.41-8.5q-10.36,0-15.32,8.19T580.78,88v22.94q0,16.92,5,24.94t15.59,8q10.19,0,15.15-7.84t5-24.32Z"/><path class="cls-1" d="M792.9,163.83h-26l-38.09-84.6v84.6h-26v-129h26l38.18,84.69V34.85h26Z"/><path class="cls-1" d="M886.5,92.78l19.4-57.93h28.35l-34.55,82.21v46.77H873.3V117.06L838.66,34.85H867Z"/><path class="cls-1" d="M461,279.59l-10.28,12.93v36.85h-26v-129h26v56.25l8.24-13.91,24-42.34h31.89l-36.94,56.69,37.56,72.28H484.53Z"/><path class="cls-1" d="M649.34,276.49q0,26-12.27,40.3T603,331.14q-21.7,0-34.1-14.22t-12.58-39.82V255.05q0-26.58,12.31-41.5t34.19-14.93q21.53,0,33.93,14.66t12.58,41.15Zm-26.13-21.61q0-17.45-5-26t-15.41-8.5q-10.36,0-15.32,8.19t-5.14,24.94v22.94q0,16.92,5,24.94t15.59,8q10.19,0,15.15-7.84t5-24.32Z"/><path class="cls-2" d="M826.46,234q0-9,3.36-13.71a11.15,11.15,0,0,1,9.66-4.71,10,10,0,0,1,8.71,4.53V200h6.37v55.28h-5.83l-.32-4.17a10,10,0,0,1-9,4.89,11.1,11.1,0,0,1-9.48-4.7q-3.44-4.7-3.51-13.26Zm6.37,3.61q0,6.54,1.94,9.61t6.33,3.07q4.75,0,7.09-4.78V225.92q-2.45-4.67-7.05-4.67-4.39,0-6.33,3.07t-2,9.43Z"/><path class="cls-2" d="M882,256q-7.27,0-11.15-4.34t-4-12.72V234.2q0-8.71,3.8-13.66a12.6,12.6,0,0,1,10.6-4.95q6.84,0,10.22,4.35t3.45,13.57v4.17H873.18v.9q0,6.26,2.36,9.1a8.31,8.31,0,0,0,6.78,2.84,11,11,0,0,0,4.95-1.06,12.3,12.3,0,0,0,4-3.37l3.31,4Q890.45,256,882,256Zm-.72-34.91a6.68,6.68,0,0,0-5.87,2.72q-1.91,2.72-2.16,8.44h15.33v-.86q-.25-5.54-2-7.92A6.16,6.16,0,0,0,881.24,221.07Z"/><path class="cls-2" d="M916.81,245.57l7.38-29.26h6.48l-11.55,38.94h-4.75l-11.7-38.94h6.48Z"/><path class="cls-2" d="M724,307.72q0-9,3.36-13.71a11.15,11.15,0,0,1,9.66-4.71,10,10,0,0,1,8.71,4.53V273.68h6.37V329h-5.83l-.32-4.17a10,10,0,0,1-9,4.89,11.1,11.1,0,0,1-9.48-4.7q-3.44-4.7-3.51-13.26Zm6.37,3.61q0,6.54,1.94,9.62t6.33,3.07q4.75,0,7.09-4.78V299.62q-2.45-4.67-7.05-4.67-4.39,0-6.33,3.07t-2,9.43Z"/><path class="cls-2" d="M779.53,329.67q-7.27,0-11.15-4.34t-4-12.72V307.9q0-8.71,3.8-13.66a12.6,12.6,0,0,1,10.6-4.95q6.84,0,10.22,4.35t3.45,13.57v4.17H770.76v.9q0,6.26,2.36,9.1a8.31,8.31,0,0,0,6.78,2.84,11,11,0,0,0,4.95-1.06,12.31,12.31,0,0,0,4-3.37l3.31,4Q788,329.67,779.53,329.67Zm-.72-34.91a6.68,6.68,0,0,0-5.87,2.72q-1.91,2.72-2.16,8.44h15.33v-.86q-.25-5.54-2-7.92A6.16,6.16,0,0,0,778.82,294.77Z"/><path class="cls-2" d="M822.73,319a4.71,4.71,0,0,0-1.55-3.53,23,23,0,0,0-6-3.46,39.1,39.1,0,0,1-7.25-3.63,10.34,10.34,0,0,1-3.15-3.44,9.5,9.5,0,0,1-1-4.59,10.21,10.21,0,0,1,3.47-7.9,14.17,14.17,0,0,1,18,.16,11.25,11.25,0,0,1,3.46,8.49h-6.33a6.27,6.27,0,0,0-1.76-4.48,5.94,5.94,0,0,0-4.5-1.85,6.32,6.32,0,0,0-4.41,1.45,5,5,0,0,0-1.6,3.89,4.24,4.24,0,0,0,1.17,3.12q1.17,1.19,5.63,3.12,7.09,2.78,9.64,5.42a9.29,9.29,0,0,1,2.55,6.72,10.25,10.25,0,0,1-3.49,8.13q-3.49,3-9.36,3a14,14,0,0,1-9.86-3.49,11.53,11.53,0,0,1-3.78-8.85H809a7.64,7.64,0,0,0,12.05,5.49A4.79,4.79,0,0,0,822.73,319Z"/><path class="cls-2" d="M848.44,279.69a4.07,4.07,0,0,1-.9,2.7,3.35,3.35,0,0,1-2.73,1.08,3.31,3.31,0,0,1-2.7-1.08,4.07,4.07,0,0,1-.9-2.7,4.22,4.22,0,0,1,.9-2.74,3.82,3.82,0,0,1,5.42,0A4.18,4.18,0,0,1,848.44,279.69Zm-.5,49.27h-6.37V290h6.37Z"/><path class="cls-2" d="M860.37,307.72q0-9.1,3.31-13.76t9.68-4.66a10,10,0,0,1,9,5.07l.32-4.35h5.76v39.3q0,7.23-3.71,11.1t-10.33,3.87a17.75,17.75,0,0,1-6.46-1.42,13.58,13.58,0,0,1-5.38-3.51l2.59-4.39a12.25,12.25,0,0,0,8.75,3.89q8,0,8.17-8.67V325.1a10,10,0,0,1-8.78,4.57,11.08,11.08,0,0,1-9.43-4.55q-3.38-4.55-3.53-13.08Zm6.37,3.61q0,6.54,1.93,9.62T875,324q4.75,0,7.13-4.85V299.73q-2.48-4.78-7.05-4.78-4.39,0-6.33,3.07t-2,9.43Z"/><path class="cls-2" d="M907.63,290l.18,4.21a11.36,11.36,0,0,1,9.46-4.93q10.33,0,10.47,13.78V329h-6.33V303.37q0-4.57-1.53-6.5a5.51,5.51,0,0,0-4.59-1.93,6.46,6.46,0,0,0-4.26,1.58,11.41,11.41,0,0,0-3,4.14V329h-6.37V290Z"/></g><g id="Box"><g class="cls-3"><rect class="cls-4" x="10" y="10" width="340" height="340"/></g><path class="cls-1" d="M180,25.82c6.7,0,13.24,1.46,17.48,3.91l103.92,60c9,5.19,17.48,19.9,17.48,30.27V240c0,10.37-8.49,25.08-17.48,30.27l-103.92,60c-4.24,2.45-10.77,3.91-17.48,3.91s-13.24-1.46-17.48-3.91l-103.92-60c-9-5.19-17.48-19.9-17.48-30.27V120c0-10.37,8.49-25.08,17.48-30.27l103.92-60c4.24-2.45,10.77-3.91,17.48-3.91m0-17c-9.42,0-18.84,2.06-26,6.19L50.1,75c-14.29,8.25-26,28.5-26,45V240c0,16.5,11.69,36.75,26,45L154,345c7.14,4.13,16.56,6.19,26,6.19s18.84-2.06,26-6.19L309.9,285c14.29-8.25,26-28.5,26-45V120c0-16.5-11.69-36.75-26-45L206,15c-7.14-4.12-16.56-6.19-26-6.19Z"/></g><g id="Type"><rect class="cls-5" x="90" y="90" width="180" height="180"/><path class="cls-1" d="M128.6,260.83v-22.1a3.08,3.08,0,0,1,.39-1.16l37-29.94c-2.7-2.57-31.1-27.63-31.1-27.63h95.35a1.41,1.41,0,0,1,1.16,1.41v17a1.27,1.27,0,0,1-1.16,1.28H183.47L231,238.34a3.07,3.07,0,0,1,.39,1.16v20.95c0,1.41-1,2.06-1.93,1.16L179.1,220.73,130.53,262C129.5,262.76,128.6,262.11,128.6,260.83Z"/><path class="cls-1" d="M189.83,117.34v51.9a1.16,1.16,0,0,1-1.23.92H171.3a1,1,0,0,1-1.13-.92v-51.9Z"/><path class="cls-1" d="M128.6,116.42V98.61a1.13,1.13,0,0,1,1.13-.92H230.27a1,1,0,0,1,1.13.92v17.81c0,.51-.41.92-1.13.92H129.73A1,1,0,0,1,128.6,116.42Z"/></g></g></svg>