<svg xmlns="http://www.w3.org/2000/svg" viewBox="0 0 346.41 400"><title>Asset 1</title><g id="Layer_2" data-name="Layer 2"><g id="Logo"><path d="M173.21,23.09l153.21,88.45V288.45L173.21,376.91,20,288.45V111.55L173.21,23.09m0-23.09L0,100V300L173.21,400,346.41,300V100L173.21,0Z"/><path d="M117,288.37V264.21a3.37,3.37,0,0,1,.42-1.26l40.46-32.74c-3-2.81-34-30.21-34-30.21H228.14a1.54,1.54,0,0,1,1.26,1.55v18.55a1.39,1.39,0,0,1-1.26,1.4H177l52,42.29a3.36,3.36,0,0,1,.42,1.26v22.9c0,1.55-1.12,2.25-2.11,1.26l-55.07-44.68-53.11,45.1C118,290.48,117,289.78,117,288.37Z"/><path d="M184,131.5v56.75a1.27,1.27,0,0,1-1.35,1H163.69a1.15,1.15,0,0,1-1.23-1V131.5Z"/><path d="M117,130.49V111a1.23,1.23,0,0,1,1.23-1H228.17a1.15,1.15,0,0,1,1.23,1v19.48c0,.56-.45,1-1.23,1H118.24A1.14,1.14,0,0,1,117,130.49Z"/></g></g></svg>