<?xml version="1.0" encoding="utf-8"?>
<!-- Generator: Adobe Illustrator 20.1.0, SVG Export Plug-In . SVG Version: 6.00 Build 0)  -->
<svg version="1.2" baseProfile="tiny" id="Layer_1" xmlns="http://www.w3.org/2000/svg" xmlns:xlink="http://www.w3.org/1999/xlink"
	 x="0px" y="0px" viewBox="0 0 171.7 237.7" overflow="scroll" xml:space="preserve">
<g>
	<path d="M49.2,218.1c-1.7-0.1-2.9-0.8-3-2.6c-0.1-1.8,0.9-2.8,2.6-2.9c1.7-0.1,2.8,0.9,3,2.6C51.9,216.9,50.8,217.8,49.2,218.1z"/>
	<path d="M75.7,44.2c-0.2,1.6-1,2.8-2.8,2.8c-1.6,0-2.5-0.8-2.7-2.4c-0.2-1.8,0.7-3,2.4-3.1C74.4,41.4,75.3,42.5,75.7,44.2z"/>
	<path d="M45.2,121.6c1.8,0.2,2.8,1.2,2.7,3c-0.1,1.5-1.1,2.4-2.6,2.4c-1.7,0-2.9-0.8-2.9-2.7C42.4,122.6,43.4,121.6,45.2,121.6z"/>
	<path d="M32.4,87.3c1.6,0,2.6,0.8,2.8,2.3c0.2,1.7-0.6,3-2.4,3.1c-1.8,0.1-2.8-1-2.8-2.8C30,88.3,30.9,87.5,32.4,87.3z"/>
	<path d="M35.2,181.1c-0.2,1.7-1,2.8-2.8,2.7c-1.5-0.1-2.4-1-2.5-2.5c-0.1-1.7,0.8-2.9,2.5-3C34.2,178.3,35.1,179.4,35.2,181.1z"/>
	<path d="M70,172.8c-19.8,0-39.7,0-59.5,0c-1.7,0-3.3-0.1-5-0.3c-1.4-0.2-2.5-1.1-2.3-2.8c0.1-1.5,1.1-2.4,2.6-2.5
		c1.7-0.1,3.3-0.2,5-0.2c16,0,32,0,48,0c1.3,0,2.7,0,4-0.1c1.6-0.2,3-1.1,2.9-2.8c-0.1-1.7-1.4-2.6-3.1-2.7
		c-1.2-0.1-2.3-0.1-3.5-0.1c-9.8,0-19.7,0-29.5,0c-1.3,0-2.7,0-4-0.2c-1.5-0.1-2.5-1-2.5-2.6c0-1.6,0.9-2.5,2.4-2.7
		c2.2-0.2,4.3-0.3,6.5-0.3c25.8,0,51.7,0,77.5,0c1.8,0,3.7,0.1,5.5,0c2-0.1,4.9,0.6,5-2.6c0.1-3.2-2.7-2.7-4.8-2.9
		c-1.5-0.1-3,0-4.5,0c-28.3,0-56.7,0-85,0c-1.5,0-3,0.1-4.5-0.2c-1.4-0.3-2.3-1.4-2.2-2.9c0.1-1.5,0.9-2.5,2.5-2.6
		c1.3-0.1,2.7-0.1,4-0.1c15.3,0,30.7,0,46,0c2.1,0,5.4,1,5.5-2.5c0.1-3.8-3.4-2.9-5.7-2.9c-13-0.1-26-0.1-39-0.2
		c-1.5,0-3-0.1-4.5-0.4c-1.2-0.3-1.9-1.3-1.9-2.6c0-1.3,0.8-2.3,2-2.5c1.8-0.3,3.6-0.4,5.5-0.4c33.5,0,67,0,100.5,0
		c1.7,0,3.3,0,5-0.2c1.4-0.1,2.6-0.9,2.7-2.5c0-1.7-1.1-2.8-2.8-2.9c-1.5-0.1-3-0.1-4.5-0.1c-24.7,0-49.3,0-74,0c-1.5,0-3,0-4.5-0.2
		c-1.3-0.1-2.2-1-2.3-2.3c-0.2-1.5,0.7-2.7,2.1-3c1.4-0.3,3-0.3,4.5-0.3c13.7,0,27.3,0,41-0.1c2.2,0,5,0.9,5.7-2.5
		c0.4-2-1.3-2.9-5.8-2.9c-26.2,0-52.3,0-78.5,0c-1.7,0-3.3,0-5-0.1c-1.7-0.1-2.9-1.1-2.9-2.9c0-1.7,1.1-2.7,2.9-2.7
		c1.7,0,3.3-0.1,5-0.1c32.8,0,65.7,0,98.5,0c1.5,0,3,0.1,4.5-0.2c1.4-0.2,2.5-1.1,2.4-2.7c-0.1-1.6-1.1-2.4-2.5-2.6
		c-1.8-0.2-3.7-0.2-5.5-0.2c-24.2,0-48.3,0-72.5,0c-1.7,0-3.3,0-5-0.2c-1.5-0.2-2.3-1.3-2.2-2.8c0-1.4,0.9-2.2,2.1-2.4
		c1.6-0.3,3.3-0.4,5-0.4c11.2,0,22.3,0,33.5-0.1c2.3,0,5.9,1,5.8-2.8c-0.1-3.6-3.7-2.5-6-2.6c-10.3-0.1-20.7,0-31-0.1
		c-2.4,0-5.8,0.6-5.9-2.9c-0.1-3.6,3.4-3,5.7-3c14,0,28,0,42-0.1c2.3,0,5.8,1,5.7-2.9c-0.1-3.3-3.4-2.6-5.5-2.6
		c-14.8-0.1-29.7-0.1-44.5-0.1c-1.7,0-3.3,0-5-0.3c-1.3-0.2-2-1.2-1.9-2.6c0.1-1.3,0.7-2.3,2-2.5c1.8-0.2,3.7-0.3,5.5-0.3
		c18.8,0,37.7,0,56.5,0c1.7,0,3.4,0.2,4.9-0.4c1-0.4,1.7-1.1,1.8-2.2c0.1-1.3-0.6-2.4-1.8-2.6c-1.4-0.3-3-0.4-4.4-0.4
		c-12.2,0-24.3,0-36.5,0c-1.7,0-3.3,0-5,0c-2.1-0.1-4.9,0.2-4.7-3c0.2-3,2.8-2.8,5-2.8c2.3,0,4.7,0,7,0c1,0,2,0,3,0
		c1.9-0.1,4-0.1,3.8-2.7c-0.1-2.6-2.2-2.5-4.1-2.6c-3.7-0.1-7.3,0-11-0.1c-1.2,0-2.3-0.1-3.5-0.3c-1.2-0.2-2.1-1.1-2.2-2.4
		c-0.1-1.6,0.8-2.6,2.2-2.9c1.5-0.3,3-0.3,4.5-0.3c13.3,0,26.7,0,40,0c1.5,0,3,0,4.5-0.1c1.7-0.1,3.1-0.8,3.1-2.6
		c0.1-2.1-1.5-2.8-3.3-2.9c-1.2-0.1-2.3-0.1-3.5-0.1c-4.3,0-8.7,0-13,0c-1.2,0-2.3,0-3.5-0.2c-1.4-0.3-2.4-1.2-2.3-2.8
		c0.1-1.3,1-2.1,2.2-2.4c1-0.2,2-0.2,3-0.3c1.3-0.1,2.7-0.1,4-0.2c1.4-0.2,2.6-0.8,2.7-2.4c0.1-1.9-1.2-2.7-2.8-2.8
		c-2.5-0.1-5-0.1-7.5-0.1c-2.2,0-4.3,0-6.5,0c-2.1,0-3.7-0.8-3.6-3.1c0.1-2,1.6-2.7,3.5-2.7c2.5,0,5,0,7.5-0.1
		c1.6-0.1,3-0.6,3.2-2.5c0.2-1.6-0.8-2.4-2.2-2.9c-0.2,0-0.3-0.1-0.5-0.2c-3.8-1.7-4-2.2-2.5-5.9c1.2-2.9,2.6-5.8,3.9-8.6
		c1.7-3.5,4.1-6,8.4-6c4,0,5.9,2.7,7.4,5.8c5.6,11.9,11.2,23.8,16.7,35.7c13.3,28.5,26.5,57.1,40,85.5
		c19.3,40.8-0.6,87.1-43.6,100.8c-5.3,1.7-10.7,2.3-16.2,3c-1.9,0.2-3.9,0.2-4.5-2c-0.9-3-3.2-3-5.6-3c-9.7,0-19.3,0-29,0
		c-1.3,0-2.7,0-4-0.1c-1.6-0.2-2.9-1-2.9-2.8c0-1.9,1.2-2.6,2.9-2.7c1.3-0.1,2.7-0.1,4-0.1c15.5,0,31,0,46.5,0c2.3,0,5,0.6,5.7-2.6
		c0.4-1.9-1.7-3-5.8-3c-13.3,0-26.7,0-40-0.1c-1.3,0-2.7,0-4,0c-1.9-0.1-3.8-0.4-3.8-3c0.1-2.5,2.1-2.8,3.9-2.8c2.7-0.1,5.3,0,8-0.1
		c1.3,0,2.7,0,4-0.1c1.6-0.1,3.1-0.8,2.9-2.7c-0.1-1.8-1.5-2.5-3.1-2.6c-1.5-0.1-3-0.1-4.5-0.1c-18.2,0-36.3,0-54.5,0
		c-1.7,0-3.3,0-5-0.2c-1.5-0.2-2.4-1.2-2.4-2.8c0-1.5,0.9-2.5,2.5-2.7c1.7-0.2,3.3-0.2,5-0.2c28.2,0,56.3,0,84.5,0
		c1.3,0,2.7,0,4-0.1c1.8-0.1,3.4-0.8,3.4-2.9c0-1.9-1.5-2.4-3.1-2.6c-1.7-0.2-3.3-0.2-5-0.2c-22.3,0-44.7,0-67,0c-1.5,0-3,0-4.5-0.1
		c-1.8-0.1-3.3-0.7-3.2-2.9c0.1-1.9,1.5-2.5,3.1-2.5c1.3-0.1,2.7-0.1,4-0.1c4.7,0,9.3,0,14-0.1c1.9,0,3.9-0.3,4-2.7
		c0.1-2.5-1.9-2.8-3.8-2.9c-1.2,0-2.3,0-3.5-0.1c-2.1,0-4.3-0.3-4.3-3c0-2.7,2.4-2.8,4.4-2.9c1.5-0.1,3,0,4.5,0c26,0,52,0,78,0
		c1.8,0,3.7,0,5.5-0.2c1.3-0.1,2-1.1,2.1-2.4c0-1.3-0.7-2.3-2-2.5c-1.6-0.2-3.3-0.3-5-0.3C109.3,172.7,89.7,172.7,70,172.8
		C70,172.8,70,172.8,70,172.8z M60.6,184.3c-1.8-0.2-2.9,0.8-3.1,2.5c-0.2,1.6,0.8,2.6,2.3,2.8c1.8,0.2,2.8-0.8,3.1-2.7
		C62.8,185.6,62.2,184.5,60.6,184.3z M90.2,164c0-1.5-0.9-2.6-2.5-2.5c-1.7,0-2.8,1.1-2.6,2.9c0.1,1.6,1.3,2.2,2.8,2.3
		C89.5,166.5,90.3,165.5,90.2,164z M95.5,64c1.5,0,2.5-0.8,2.5-2.4c0-1.8-1-2.7-2.7-2.6c-1.6,0.1-2.2,1.1-2.3,2.6
		C93.1,63.2,94,64.1,95.5,64z M89,209.5c-0.1-1.8-1.2-2.6-3-2.4c-1.6,0.2-2.2,1.3-2.1,2.8c0.1,1.6,1.2,2.2,2.7,2.2
		C88.1,211.9,89,211,89,209.5z M121.6,93.2c-1.6,0.1-2.4,1.2-2.3,2.7c0.1,1.6,1.1,2.4,2.7,2.3c1.6-0.1,2.3-1.1,2.3-2.7
		C124,94,123.2,93,121.6,93.2z"/>
</g>
</svg>
